<svg width="835" height="608" viewBox="0 0 835 608" fill="none" xmlns="http://www.w3.org/2000/svg">
<path opacity="0.2" d="M0 202C0 211.941 8.05887 220 18 220L261 220C270.941 220 279 211.941 279 202V128C279 118.059 270.941 110 261 110L18 110C8.05887 110 0 118.059 0 128L0 202Z" fill="url(#paint0_linear)"/>
<path opacity="0.15" d="M150 110L835 110V0L150 0V110Z" fill="url(#paint1_linear)"/>
<rect opacity="0.6" width="150" height="110" transform="matrix(1 0 0 -1 0 110)" fill="url(#paint2_linear)"/>
<path opacity="0.5" d="M0 590C0 599.941 8.05887 608 18 608H92C101.941 608 110 599.941 110 590L110 238C110 228.059 101.941 220 92 220H0L0 590Z" fill="url(#paint3_linear)"/>
<defs>
<linearGradient id="paint0_linear" x1="-115.356" y1="165" x2="332.989" y2="174.493" gradientUnits="userSpaceOnUse">
<stop stop-color="#4AB1A0" stop-opacity="0"/>
<stop offset="1" stop-color="white" stop-opacity="0.9"/>
</linearGradient>
<linearGradient id="paint1_linear" x1="538.14" y1="55.505" x2="150.179" y2="47.1631" gradientUnits="userSpaceOnUse">
<stop stop-color="#4AB1A2" stop-opacity="0"/>
<stop offset="1" stop-color="white"/>
</linearGradient>
<linearGradient id="paint2_linear" x1="-48.5" y1="55" x2="150" y2="54.6848" gradientUnits="userSpaceOnUse">
<stop stop-color="#4AB1A1"/>
<stop offset="1" stop-color="white" stop-opacity="0.3"/>
</linearGradient>
<linearGradient id="paint3_linear" x1="55" y1="516" x2="52.6738" y2="229.519" gradientUnits="userSpaceOnUse">
<stop stop-color="#4AB1A0" stop-opacity="0"/>
<stop offset="1" stop-color="white" stop-opacity="0.2"/>
</linearGradient>
</defs>
</svg>
