<svg width="40" height="40" viewBox="0 0 40 40" fill="none" xmlns="http://www.w3.org/2000/svg">
<path d="M15 13.8861H25" stroke="#3A4151" stroke-width="1.75" stroke-miterlimit="10" stroke-linecap="round" stroke-linejoin="round"/>
<path d="M17.2319 33.0743H22.8616" stroke="#3A4151" stroke-width="1.75" stroke-miterlimit="10" stroke-linecap="round" stroke-linejoin="round"/>
<path d="M32.4319 39H7.56774C5.97268 39 4.75293 37.7772 4.75293 36.1782V29.5H35.2468V36.1782C35.2468 37.7772 34.027 39 32.4319 39Z" stroke="#3A4151" stroke-width="1.75" stroke-miterlimit="10" stroke-linecap="round" stroke-linejoin="round"/>
<path d="M36.1852 29.5H3.81482C2.21975 29.5 1 28.2772 1 26.6782V20.0941C1 18.495 2.21975 17.2723 3.81482 17.2723H36.1852C37.7802 17.2723 39 18.495 39 20.0941V26.6782C39 28.2772 37.7802 29.5 36.1852 29.5Z" stroke="#3A4151" stroke-width="1.75" stroke-miterlimit="10" stroke-linecap="round" stroke-linejoin="round"/>
<path d="M32.9014 17.2723V29.5" stroke="#3A4151" stroke-width="1.75" stroke-miterlimit="10" stroke-linecap="round" stroke-linejoin="round"/>
<path d="M13.5727 4.19802C12.8221 2.31683 10.9456 1 8.88138 1C6.62953 1 4.75298 2.41089 4.09619 4.38614H8.22459C9.16286 4.38614 9.91348 5.13862 9.91348 6.07921C9.91348 7.0198 9.16286 7.77228 8.22459 7.77228H4.09619C4.75298 9.74753 6.72336 11.1584 8.88138 11.1584C11.0394 11.1584 12.916 9.84159 13.5727 7.9604H26.4271C27.1777 9.84159 29.0542 11.1584 31.1184 11.1584C33.3703 11.1584 35.2468 9.74753 35.9036 7.77228H31.7752C30.8369 7.77228 30.0863 7.0198 30.0863 6.07921C30.0863 5.13862 30.8369 4.38614 31.7752 4.38614H35.9036C35.2468 2.41089 33.3703 1 31.1184 1C28.9604 1 27.0839 2.31683 26.4271 4.19802H13.5727Z" stroke="#3A4151" stroke-width="1.75" stroke-miterlimit="10" stroke-linecap="round" stroke-linejoin="round"/>
<path d="M7.09863 17.2723V29.5" stroke="#3A4151" stroke-width="1.75" stroke-miterlimit="10" stroke-linecap="round" stroke-linejoin="round"/>
</svg>
