<svg width="95" height="24" viewBox="0 0 95 24" fill="none" xmlns="http://www.w3.org/2000/svg">
<path fill-rule="evenodd" clip-rule="evenodd" d="M39.9811 14.6534C39.9811 13.8534 39.3875 13.2856 38.1488 13.2856H35.6456V16.0211H38.2004C39.2585 16.0469 39.9811 15.6598 39.9811 14.6534ZM39.5424 9.20824C39.5424 8.43405 39.0004 7.89212 38.2262 7.89212H35.6714V10.4985H38.1746C39.052 10.4985 39.5424 9.82759 39.5424 9.20824ZM43.6972 15.0404C43.6972 17.3888 41.5294 18.9372 39.3359 18.9372H32.2134V4.97601H38.7424C41.2456 4.97601 43.0778 6.24052 43.0778 8.82114C43.0778 11.0147 41.1681 11.6856 41.1681 11.6856C41.1681 11.7114 43.6972 12.2792 43.6972 15.0404Z" fill="#ED1C24"/>
<path fill-rule="evenodd" clip-rule="evenodd" d="M54.097 11.9437C54.097 9.75013 53.0906 7.9953 51.1035 7.9953C49.1164 7.9953 48.1358 9.77593 48.1358 11.9437C48.1358 14.1372 49.1164 15.9178 51.1035 15.9178C53.0906 15.9436 54.097 14.163 54.097 11.9437ZM57.5293 11.9437C57.5293 16.0469 55.1809 19.2726 51.1035 19.2726C47.0519 19.2726 44.6777 16.0469 44.6777 11.9437C44.6777 7.86627 47.0519 4.61469 51.1035 4.61469C55.1809 4.64049 57.5293 7.86627 57.5293 11.9437Z" fill="#ED1C24"/>
<path fill-rule="evenodd" clip-rule="evenodd" d="M69.2194 14.7049C69.2194 17.7758 66.4324 19.2726 63.8259 19.2726C60.8066 19.2726 59.2582 18.1113 58.0195 16.6662L60.2389 14.4726C61.1679 15.6597 62.4066 16.2791 63.7743 16.2791C64.9098 16.2791 65.6582 15.7113 65.6582 14.8855C65.6582 14.0081 64.9872 13.7242 63.155 13.3372L62.6647 13.2339C60.4711 12.7694 58.6647 11.5307 58.6647 9.02751C58.6647 6.29204 60.884 4.64044 63.8259 4.64044C66.3291 4.64044 67.9291 5.72431 68.9098 6.83397L66.7678 8.9759C66.0969 8.25332 65.0646 7.68558 63.9034 7.68558C63.1034 7.68558 62.2001 8.04687 62.2001 8.9759C62.2001 9.8275 63.1292 10.1372 64.3163 10.3694L64.8066 10.4727C66.8195 10.8856 69.2194 11.5049 69.2194 14.7049Z" fill="#ED1C24"/>
<path fill-rule="evenodd" clip-rule="evenodd" d="M82.2002 16.2533C80.7808 18.3178 79.4389 19.2726 76.6776 19.2726C72.7551 19.2726 70.2261 16.021 70.2261 11.8662C70.2261 7.91784 72.5228 4.64044 76.7293 4.64044C79.026 4.64044 80.7034 5.54366 82.0969 7.65977L79.2841 9.54363C78.7163 8.56299 77.968 7.96945 76.7551 7.96945C75.2067 7.96945 73.7099 9.36299 73.7099 11.8404C73.7099 14.6275 75.3357 15.892 76.8583 15.892C78.1744 15.892 78.7937 15.221 79.3615 14.292L82.2002 16.2533Z" fill="#ED1C24"/>
<path fill-rule="evenodd" clip-rule="evenodd" d="M95.0002 18.9372H91.3357V13.4405H87.1034V18.9372H83.439V4.97601H87.1034V10.1115H91.3357V4.97601H95.0002V18.9372Z" fill="#ED1C24"/>
<path opacity="0.75" d="M15.4385 21.0548L15.4383 21.0548C14.2273 21.5684 12.9406 21.828 11.6127 21.828C10.2849 21.828 8.99815 21.5684 7.78711 21.0548L7.78696 21.0548C6.61624 20.56 5.56466 19.8517 4.66431 18.9487L4.66418 18.9485C3.76101 18.0454 3.05272 16.9937 2.55794 15.823L2.55793 15.823C2.04701 14.6146 1.78744 13.3279 1.78744 12C1.78744 10.6721 2.04701 9.38532 2.55797 8.17415C3.05275 7.00347 3.76103 5.95185 4.66418 5.0487C5.56733 4.14555 6.61894 3.43727 7.78963 2.94249C9.0008 2.43153 10.2876 2.17196 11.6155 2.17196C12.9433 2.17196 14.23 2.43153 15.4411 2.94514L15.4412 2.9452C16.612 3.43999 17.6635 4.14825 18.5639 5.0513L18.564 5.05144C19.4672 5.95458 20.1754 7.0062 20.6702 8.17689C21.1813 9.38822 21.4435 10.675 21.4435 12.0027C21.4435 13.3306 21.1839 14.6173 20.6703 15.8283L20.6703 15.8284C20.1755 16.9963 19.4673 18.0453 18.564 18.9485C17.6608 19.8517 16.6092 20.56 15.4385 21.0548ZM11.6155 0.963623C5.51985 0.963623 0.579102 5.90437 0.579102 12C0.579102 18.0956 5.51985 23.0364 11.6155 23.0364C17.7111 23.0364 22.6518 18.0956 22.6518 12C22.6518 5.90437 17.7111 0.963623 11.6155 0.963623Z" fill="#ED1C24" stroke="#ED1C24" stroke-width="0.25"/>
<path opacity="0.75" d="M7.0774 7.27019L7.16758 7.35675C7.18796 7.33552 7.20831 7.31458 7.2287 7.2939V16.7046C7.20723 16.6832 7.18584 16.6616 7.16455 16.64C6.58658 16.0378 6.13093 15.3358 5.81424 14.5536C5.48782 13.7461 5.3221 12.8884 5.3221 12C5.3221 11.1116 5.48781 10.254 5.81662 9.44395L5.81666 9.44384C6.1334 8.6615 6.58924 7.96169 7.16775 7.35657L7.0774 7.27019ZM7.0774 7.27019C7.12756 7.21794 7.17771 7.16726 7.2287 7.11771L5.69835 14.6005C5.36582 13.7778 5.1971 12.9042 5.1971 12C5.1971 11.0958 5.36582 10.2222 5.7008 9.39693C6.02355 8.59972 6.48813 7.88656 7.0774 7.27019ZM15.9552 5.75941L15.9552 5.7594L15.9545 5.75886C15.8512 5.68201 15.7439 5.60401 15.6335 5.53082L15.6021 5.51001H15.5644H14.9262H14.8012V5.63501V8.97903H8.42985V5.63501V5.51001H8.30485H7.66668H7.62901L7.59761 5.53082C7.4872 5.60401 7.37993 5.68201 7.27664 5.75886L7.27664 5.75886L7.27591 5.75941C5.42094 7.16069 4.21631 9.4337 4.21631 12C4.21631 14.5662 5.42094 16.8393 7.27591 18.2405L7.27664 18.2411C7.37993 18.3179 7.4872 18.3959 7.59761 18.4691L7.62901 18.4899H7.66668H8.30485H8.42985V18.3649V15.0209H14.7988V18.3649V18.4899H14.9238H15.5644H15.6021L15.6335 18.4691C15.7439 18.3959 15.8512 18.3179 15.9545 18.2411L15.9552 18.2405C17.8102 16.8393 19.0148 14.5662 19.0148 12C19.0148 9.4337 17.8102 7.16069 15.9552 5.75941ZM14.7988 13.7776H8.42985V10.2224H14.7988V13.7776ZM17.4145 14.556L17.4144 14.5561C17.0976 15.3386 16.6442 16.0383 16.0635 16.6432C16.0431 16.6644 16.0228 16.6854 16.0024 16.706V7.29779C16.0231 7.31843 16.0436 7.33915 16.0641 7.35991C16.6419 7.96198 17.0953 8.66405 17.4146 9.44669C17.7433 10.254 17.909 11.1116 17.909 12C17.909 12.8883 17.7433 13.746 17.4145 14.556Z" fill="#ED1C24" stroke="#ED1C24" stroke-width="0.25"/>
</svg>
