<svg width="36" height="38" viewBox="0 0 36 38" fill="none" xmlns="http://www.w3.org/2000/svg">
<path d="M32.1667 37H3.83333C2.22778 37 1 35.752 1 34.12V3.88C1 2.248 2.22778 1 3.83333 1H32.1667C33.7722 1 35 2.248 35 3.88V34.12C35 35.656 33.6778 37 32.1667 37Z" stroke="#3A4151" stroke-width="1.75" stroke-miterlimit="10" stroke-linecap="round" stroke-linejoin="round"/>
<path d="M1 31.5H35" stroke="#3A4151" stroke-width="1.75" stroke-miterlimit="10" stroke-linecap="round" stroke-linejoin="round"/>
<path d="M10.9167 26.9722C13.0552 26.9722 14.7889 25.2386 14.7889 23.1C14.7889 20.9614 13.0552 19.2278 10.9167 19.2278C8.77809 19.2278 7.04443 20.9614 7.04443 23.1C7.04443 25.2386 8.77809 26.9722 10.9167 26.9722Z" stroke="#3A4151" stroke-width="1.75" stroke-miterlimit="10" stroke-linecap="round" stroke-linejoin="round"/>
<path d="M10.9165 13.5611C13.2637 13.5611 15.1665 11.6583 15.1665 9.31113C15.1665 6.96392 13.2637 5.06113 10.9165 5.06113C8.56929 5.06113 6.6665 6.96392 6.6665 9.31113C6.6665 11.6583 8.56929 13.5611 10.9165 13.5611Z" stroke="#3A4151" stroke-width="1.75" stroke-miterlimit="10" stroke-linecap="round" stroke-linejoin="round"/>
<path d="M25.0835 27.35C27.4307 27.35 29.3335 25.4472 29.3335 23.1C29.3335 20.7528 27.4307 18.85 25.0835 18.85C22.7363 18.85 20.8335 20.7528 20.8335 23.1C20.8335 25.4472 22.7363 27.35 25.0835 27.35Z" stroke="#3A4151" stroke-width="1.75" stroke-miterlimit="10" stroke-linecap="round" stroke-linejoin="round"/>
<path d="M25.0832 24.5167C25.8656 24.5167 26.4998 23.8824 26.4998 23.1C26.4998 22.3176 25.8656 21.6833 25.0832 21.6833C24.3008 21.6833 23.6665 22.3176 23.6665 23.1C23.6665 23.8824 24.3008 24.5167 25.0832 24.5167Z" fill="#3A4151"/>
<path d="M10.9167 10.7278C11.6991 10.7278 12.3333 10.0935 12.3333 9.31111C12.3333 8.5287 11.6991 7.89444 10.9167 7.89444C10.1343 7.89444 9.5 8.5287 9.5 9.31111C9.5 10.0935 10.1343 10.7278 10.9167 10.7278Z" fill="#3A4151"/>
<path d="M25.0832 13.1833C27.2217 13.1833 28.9554 11.4497 28.9554 9.3111C28.9554 7.17253 27.2217 5.43887 25.0832 5.43887C22.9446 5.43887 21.2109 7.17253 21.2109 9.3111C21.2109 11.4497 22.9446 13.1833 25.0832 13.1833Z" stroke="#3A4151" stroke-width="1.75" stroke-miterlimit="10" stroke-linecap="round" stroke-linejoin="round"/>
</svg>
