<svg width="36" height="38" viewBox="0 0 36 38" fill="none" xmlns="http://www.w3.org/2000/svg">
<path d="M32.1667 37H3.83333C2.22778 37 1 35.752 1 34.12V3.88C1 2.248 2.22778 1 3.83333 1H32.1667C33.7722 1 35 2.248 35 3.88V34.12C35 35.752 33.6778 37 32.1667 37Z" stroke="#3A4151" stroke-width="1.75" stroke-miterlimit="10" stroke-linecap="round" stroke-linejoin="round"/>
<path d="M1 7H35" stroke="#3A4151" stroke-width="1.75" stroke-miterlimit="10" stroke-linecap="round" stroke-linejoin="round"/>
<path d="M18 32C23.5228 32 28 27.5229 28 22C28 16.4772 23.5228 12 18 12C12.4772 12 8 16.4772 8 22C8 27.5229 12.4772 32 18 32Z" stroke="#3A4151" stroke-width="1.75" stroke-miterlimit="10" stroke-linecap="round" stroke-linejoin="round"/>
<path d="M18 16.1111C17.6222 16.7722 17.2445 17.5278 17.2445 18.9444C17.2445 21.7778 18.6611 21.7778 18.6611 24.6111C18.6611 26.0278 18.2834 26.7833 17.9056 27.4444" stroke="#3A4151" stroke-width="1.75" stroke-miterlimit="10" stroke-linecap="round" stroke-linejoin="round"/>
<path d="M13.4667 17.0555C13.1833 17.6111 12.9 18.2592 12.9 19.3704C12.9 21.7778 14.1278 21.7778 14.1278 24.0926C14.1278 25.2963 13.8445 25.8518 13.5611 26.5" stroke="#3A4151" stroke-width="1.75" stroke-miterlimit="10" stroke-linecap="round" stroke-linejoin="round"/>
<path d="M22.6278 17.0555C22.3445 17.6111 22.0611 18.2592 22.0611 19.3704C22.0611 21.7778 23.2889 21.7778 23.2889 24.0926C23.2889 25.2963 23.0056 25.8518 22.7222 26.5" stroke="#3A4151" stroke-width="1.75" stroke-miterlimit="10" stroke-linecap="round" stroke-linejoin="round"/>
</svg>
