<svg width="40" height="40" viewBox="0 0 40 40" fill="none" xmlns="http://www.w3.org/2000/svg">
<path d="M21.735 13.2178C23.3385 13.4017 24.8318 14.1248 25.9702 15.2686C27.1085 16.4123 27.8242 17.909 28 19.5128" stroke="white" stroke-width="1.35" stroke-linecap="round" stroke-linejoin="round"/>
<path d="M21.735 16.3894C22.5072 16.5417 23.2162 16.9212 23.7711 17.4791C24.3261 18.0371 24.7016 18.748 24.8496 19.5207" stroke="white" stroke-width="1.35" stroke-linecap="round" stroke-linejoin="round"/>
<path d="M17.166 20.2732C17.9713 21.7532 19.1822 22.9731 20.6566 23.7894C21.2641 24.1202 21.9761 24.203 22.6435 24.021L23.917 23.6785C24.093 23.6298 24.2772 23.6176 24.458 23.6429C24.6389 23.6681 24.8127 23.7301 24.9687 23.825C25.857 24.3758 26.686 25.0169 27.4425 25.738L27.4935 25.788C27.7119 26.0111 27.8554 26.2967 27.9043 26.6049C27.9428 27.7814 26.1393 29.3577 25.7911 29.5572C24.9615 30.1584 23.8857 30.1451 22.5629 29.5314C18.8934 27.9997 13.0186 22.2031 11.4649 18.3677C10.8697 17.0516 10.8321 15.9521 11.4327 15.1219C11.7119 14.6531 13.2683 12.9441 14.3754 13.0014C14.7051 13.0539 15.008 13.2144 15.2364 13.4577C15.9565 14.2246 16.5951 15.0642 17.1419 15.9628C17.235 16.1182 17.2957 16.2908 17.3203 16.4702C17.3449 16.6497 17.333 16.8322 17.2851 17.0069L16.9378 18.3059C16.7602 18.9668 16.8419 19.6705 17.166 20.2732V20.2732Z" stroke="white" stroke-width="1.35" stroke-linecap="round" stroke-linejoin="round"/>
<rect x="0.75" y="0.75" width="38.5" height="38.5" rx="19.25" stroke="url(#paint0_linear)" stroke-width="1.5"/>
<defs>
<linearGradient id="paint0_linear" x1="186.246" y1="41.3284" x2="96.1468" y2="-99.8896" gradientUnits="userSpaceOnUse">
<stop stop-color="#54AAD9"/>
<stop offset="1" stop-color="#45B585"/>
</linearGradient>
</defs>
</svg>
