<svg width="126" height="30" viewBox="0 0 126 30" fill="none" xmlns="http://www.w3.org/2000/svg">
<path d="M7.25926 30H0.921811C0.691358 30 0.403292 29.8839 0.230453 29.7099C0.0576132 29.5358 0 29.3037 0 29.0135V8.58801C0 8.29787 0.115226 8.00774 0.345679 7.83366L9.04527 0.522244C9.85185 -0.174081 11.0617 -0.174081 11.9259 0.522244L20.6255 7.89168C20.856 8.06576 20.9712 8.3559 20.9712 8.64603V16.2476C20.9712 16.7698 20.5679 17.234 19.9918 17.234H14.6337V22.6306C14.6337 23.1528 14.2305 23.617 13.7119 23.617H8.2963C8.2963 25.4159 8.2963 29.0135 8.2963 29.0135C8.23868 29.5938 7.83539 30 7.25926 30ZM1.90123 28.0851H6.33745V23.675C6.33745 22.3985 6.33745 21.7021 7.31687 21.7021H12.6749V17.234H7.25926C6.27984 17.234 6.27984 16.4797 6.27984 15.4932V11.1992C6.27984 10.9091 6.39506 10.619 6.62551 10.4449C6.68313 10.3868 9.79424 7.77563 9.79424 7.77563C10.1399 7.48549 10.6584 7.48549 11.0041 7.77563L14.1728 10.4449C14.4033 10.619 14.5185 10.9091 14.5185 11.1992V15.3191H19.0123V9.05222L10.6584 1.97292C10.5432 1.85687 10.3704 1.85687 10.2551 1.97292L1.90123 9.05222V28.0851ZM8.23868 15.3191H12.6749V11.6054L10.428 9.74855C9.33333 10.677 8.64198 11.2573 8.18107 11.6054C8.23868 12.4178 8.23868 14.2166 8.23868 15.3191Z" fill="url(#paint0_linear)"/>
<path d="M30.9959 9.92261C29.1523 9.92261 28.1728 10.851 28.1728 12.7079V13.5203H26.6749V15.087H28.1728V22.8626H30.0741V15.087H31.9753V13.5203H30.0741V12.7079C30.0741 11.9536 30.4198 11.5474 31.2263 11.5474H32.0905V9.98063H32.0329C31.5144 9.98063 31.1687 9.92261 30.9959 9.92261Z" fill="white"/>
<path d="M39.3498 18.8007C39.3498 19.6131 39.1193 20.2514 38.7161 20.7156C38.3128 21.1798 37.7366 21.4119 37.1029 21.4119C35.8354 21.4119 35.2017 20.7736 35.2017 19.5551V13.5203H33.3004V19.7872C33.3004 20.8317 33.5885 21.6441 34.1646 22.2243C34.7407 22.8046 35.5473 23.0947 36.5844 23.0947C37.7366 23.0947 38.7161 22.5725 39.4074 21.6441V22.9207H41.251V13.5203H39.3498V18.8007Z" fill="white"/>
<path d="M47.9342 13.2883C46.7819 13.2883 45.8025 13.8106 45.1111 14.739V13.4624H43.2675V22.8048H45.1687V17.5243C45.1687 16.7119 45.3992 16.0156 45.8601 15.5514C46.321 15.0872 46.8395 14.9131 47.4156 14.9131C48.6831 14.9131 49.3169 15.5514 49.3169 16.77V22.8048H51.2181V16.5959C51.2181 15.5514 50.93 14.739 50.3539 14.1587C49.7778 13.5785 48.9712 13.2883 47.9342 13.2883Z" fill="white"/>
<path d="M59.9753 14.6226C59.2839 13.7522 58.3045 13.288 57.037 13.288C55.7695 13.288 54.6749 13.7522 53.9259 14.6226C53.1769 15.493 52.7737 16.7116 52.7737 18.2203C52.7737 19.729 53.1769 20.8896 53.9259 21.818C54.6749 22.6884 55.7119 23.1526 57.037 23.1526C58.3045 23.1526 59.3416 22.6884 60.0329 21.7019V22.9205H61.8765V9.98047H59.9753V14.6226ZM57.3827 21.4118C56.5761 21.4118 55.9424 21.1217 55.4815 20.5994C55.0206 20.0772 54.7901 19.2648 54.7901 18.2783C54.7901 17.2339 55.0206 16.4215 55.4815 15.8412C55.9424 15.2609 56.5761 14.9708 57.3827 14.9708C58.1893 14.9708 58.8807 15.2609 59.3416 15.7832C59.8025 16.3634 60.0329 17.1758 60.0329 18.1623C60.0329 19.2068 59.8025 20.0192 59.3416 20.5414C58.8807 21.1217 58.2469 21.4118 57.3827 21.4118Z" fill="white"/>
<path d="M71.4403 20.9479V16.0736C71.4403 14.2168 70.1728 13.2883 67.7531 13.2883C65.2757 13.2883 63.9506 14.3328 63.7778 16.4218V16.4798H65.679V16.4218C65.7366 15.8415 65.9095 15.3773 66.1975 15.1452C66.4856 14.9131 67.0041 14.797 67.7531 14.797C68.3868 14.797 68.9053 14.9131 69.1934 15.0872C69.4815 15.2613 69.5967 15.6094 69.5967 16.0736C69.5967 16.4218 69.4815 16.6539 69.3086 16.828C69.0782 17.0021 68.7325 17.1181 68.2716 17.1761L66.9465 17.2922C64.642 17.5243 63.4321 18.5108 63.4321 20.1936C63.4321 21.064 63.7202 21.7603 64.3539 22.2825C64.93 22.7467 65.7942 23.0369 66.7737 23.0369C68.0988 23.0369 69.0782 22.5727 69.7119 21.6442C69.7695 22.0504 69.9424 22.3406 70.2305 22.5146C70.5185 22.7467 70.9794 22.8628 71.5555 22.8628C71.9012 22.8628 72.1893 22.8628 72.4197 22.8048H72.4774V21.2961H71.9012C71.5556 21.3541 71.4403 21.238 71.4403 20.9479ZM67.0041 21.5862C66.4856 21.5862 66.0247 21.4701 65.7942 21.238C65.5062 21.0059 65.3909 20.6578 65.3909 20.2516C65.3909 19.8454 65.5062 19.4972 65.7942 19.2651C66.0823 19.033 66.5432 18.8589 67.2346 18.8009L68.5021 18.6849C68.963 18.6268 69.3663 18.5108 69.5967 18.3947V19.1491C69.5967 19.9034 69.3663 20.5417 68.8477 20.9479C68.3292 21.3541 67.7531 21.5862 67.0041 21.5862Z" fill="white"/>
<path d="M83.7119 13.2883C82.5021 13.2883 81.5226 13.8686 80.8889 14.9711C80.3704 13.8686 79.3909 13.2883 78.0658 13.2883C76.9712 13.2883 76.107 13.7525 75.4733 14.739V13.5204H73.6296V22.8628H75.5309V17.7564C75.5309 16.886 75.7037 16.1897 76.107 15.7255C76.5103 15.2613 77.0288 15.0291 77.6049 15.0291C78.7572 15.0291 79.3333 15.6094 79.3333 16.886V22.9208H81.2346V17.8144C81.2346 16.944 81.4074 16.2477 81.8107 15.7835C82.214 15.3193 82.7325 15.0872 83.3086 15.0872C84.4609 15.0872 85.037 15.6674 85.037 16.944V22.9789H86.9383V16.5959C86.9383 15.6094 86.6502 14.797 86.0741 14.1587C85.4979 13.5785 84.749 13.2883 83.7119 13.2883Z" fill="white"/>
<path d="M92.93 13.2883C91.6049 13.2883 90.5679 13.7525 89.7613 14.623C88.9547 15.4934 88.5514 16.7119 88.5514 18.1626C88.5514 19.6133 88.9547 20.8319 89.7613 21.7023C90.5679 22.5727 91.6625 23.0369 92.9876 23.0369C94.0247 23.0369 94.9465 22.7467 95.6955 22.2245C96.4444 21.7023 96.9053 20.8899 97.1934 19.9614V19.9034H95.2922V19.9614C94.9465 20.9479 94.1975 21.4701 93.0453 21.4701C92.2963 21.4701 91.6625 21.238 91.2592 20.7738C90.8559 20.3096 90.5679 19.6713 90.4527 18.8009H97.3662V18.2206C97.3662 16.77 96.9629 15.5514 96.214 14.623C95.4074 13.7525 94.3127 13.2883 92.93 13.2883ZM92.93 14.9131C93.6214 14.9131 94.1975 15.1452 94.6008 15.6094C95.0041 16.0736 95.2922 16.5959 95.3498 17.3502H90.4527C90.5679 16.5959 90.8559 16.0156 91.2592 15.6094C91.7201 15.1452 92.2387 14.9131 92.93 14.9131Z" fill="white"/>
<path d="M103.646 13.2883C102.494 13.2883 101.514 13.8106 100.823 14.739V13.4624H98.9794V22.8048H100.881V17.5243C100.881 16.7119 101.111 16.0156 101.572 15.5514C102.033 15.0872 102.551 14.9131 103.128 14.9131C104.395 14.9131 105.029 15.5514 105.029 16.77V22.8048H106.93V16.5959C106.93 15.5514 106.642 14.739 106.066 14.1587C105.432 13.5785 104.626 13.2883 103.646 13.2883Z" fill="white"/>
<path d="M111.193 10.8511H109.292V13.5203H107.794V15.0871H109.292V20.7737C109.292 21.5281 109.523 22.1083 109.926 22.4565C110.329 22.8047 111.021 22.9787 111.885 22.9787C112.23 22.9787 112.576 22.9787 112.979 22.9207H113.037V21.354H112.173C111.827 21.354 111.539 21.2959 111.424 21.1799C111.251 21.0638 111.193 20.8898 111.193 20.5996V15.0871H113.037V13.5203H111.193V10.8511Z" fill="white"/>
<path d="M121.967 20.9479V16.0736C121.967 14.2168 120.7 13.2883 118.28 13.2883C115.802 13.2883 114.477 14.3328 114.305 16.4218V16.4798H116.206V16.4218C116.263 15.8415 116.436 15.3773 116.724 15.1452C117.012 14.9131 117.531 14.797 118.28 14.797C118.914 14.797 119.432 14.9131 119.72 15.0872C120.008 15.2613 120.123 15.6094 120.123 16.0736C120.123 16.4218 120.008 16.6539 119.835 16.828C119.605 17.0021 119.259 17.1181 118.798 17.1761L117.473 17.2922C115.169 17.5243 113.959 18.5108 113.959 20.1936C113.959 21.064 114.247 21.7603 114.881 22.2825C115.457 22.7467 116.321 23.0369 117.3 23.0369C118.626 23.0369 119.605 22.5727 120.239 21.6442C120.296 22.0504 120.469 22.3406 120.757 22.5146C121.045 22.7467 121.506 22.8628 122.082 22.8628C122.428 22.8628 122.716 22.8628 122.947 22.8048H123.004V21.2961H122.428C122.082 21.3541 121.967 21.238 121.967 20.9479ZM117.531 21.5862C117.012 21.5862 116.551 21.4701 116.321 21.238C116.033 21.0059 115.918 20.6578 115.918 20.2516C115.918 19.8454 116.033 19.4972 116.321 19.2651C116.609 19.033 117.07 18.8589 117.761 18.8009L119.029 18.6849C119.49 18.6268 119.893 18.5108 120.123 18.3947V19.1491C120.123 19.9034 119.893 20.5417 119.374 20.9479C118.914 21.3541 118.28 21.5862 117.531 21.5862Z" fill="white"/>
<path d="M126 9.98047H124.099V22.8625H126V9.98047Z" fill="white"/>
<defs>
<linearGradient id="paint0_linear" x1="20.8086" y1="28.1273" x2="-4.25436" y2="5.92056" gradientUnits="userSpaceOnUse">
<stop stop-color="#54A1D9"/>
<stop offset="1" stop-color="#45B585"/>
</linearGradient>
</defs>
</svg>
