<svg width="147" height="37" viewBox="0 0 147 37" fill="none" xmlns="http://www.w3.org/2000/svg">
<path d="M38.406 34.8027C38.3355 34.6609 38.2651 34.4483 38.2651 34.0939C37.8423 34.6609 37.2785 34.9444 36.3624 34.9444C35.7282 34.9444 35.2349 34.8027 34.8121 34.4483C34.3892 34.0939 34.2483 33.7395 34.2483 33.1724C34.2483 32.1092 35.0235 31.4713 36.5033 31.3295L37.349 31.2586C37.6308 31.1877 37.8423 31.1169 37.9832 31.046C38.1241 30.9751 38.1946 30.7625 38.1946 30.6207C38.1946 30.3372 38.1241 30.1954 37.9832 30.0536C37.8423 29.9119 37.5604 29.9119 37.1376 29.9119C36.7147 29.9119 36.4329 29.9828 36.2214 30.1245C36.01 30.2663 35.9396 30.4789 35.9396 30.8333H34.5302C34.6006 29.4866 35.5167 28.8487 37.1376 28.8487C38.7584 28.8487 39.5335 29.4157 39.5335 30.6207V33.7395C39.5335 34.2356 39.604 34.59 39.7449 34.8736H38.406V34.8027ZM37.7718 33.5268C38.0537 33.3142 38.1946 32.9598 38.1946 32.4636V31.8966C38.0537 32.0383 37.8423 32.1092 37.5604 32.1092L36.7852 32.1801C36.4329 32.251 36.151 32.3218 36.01 32.4636C35.8691 32.6054 35.7986 32.818 35.7986 33.0307C35.7986 33.3142 35.8691 33.4559 36.0805 33.5977C36.2214 33.7395 36.5033 33.8103 36.7852 33.8103C37.1376 33.9521 37.4899 33.8103 37.7718 33.5268Z" fill="#3A4151"/>
<path d="M45.8053 29.6284C46.2986 30.1954 46.51 30.9042 46.51 31.8966C46.51 32.818 46.2986 33.5268 45.8053 34.0939C45.312 34.6609 44.6778 34.9445 43.9026 34.9445C43.1275 34.9445 42.4932 34.6609 42.0704 34.023V37H40.661V28.9196H41.9999V29.7701C42.4228 29.1322 43.057 28.7778 43.8322 28.7778C44.6778 28.8487 45.312 29.0613 45.8053 29.6284ZM43.5503 33.7395C44.0436 33.7395 44.3959 33.5977 44.6778 33.2433C44.9597 32.8889 45.1006 32.4636 45.1006 31.8257C45.1006 31.2586 44.9597 30.7625 44.6778 30.479C44.3959 30.1954 44.0436 29.9828 43.5503 29.9828C43.057 29.9828 42.7046 30.1245 42.4228 30.479C42.1409 30.8334 41.9999 31.2586 41.9999 31.8966C41.9999 32.5345 42.1409 32.9598 42.4228 33.3142C42.7046 33.5977 43.057 33.7395 43.5503 33.7395Z" fill="#3A4151"/>
<path d="M52.4999 29.6284C52.9932 30.1954 53.2046 30.9042 53.2046 31.8966C53.2046 32.818 52.9932 33.5268 52.4999 34.0939C52.0067 34.6609 51.3724 34.9445 50.5973 34.9445C49.8221 34.9445 49.1879 34.6609 48.765 34.023V37H47.3557V28.9196H48.6946V29.7701C49.1174 29.1322 49.7516 28.7778 50.5268 28.7778C51.3724 28.8487 52.0067 29.0613 52.4999 29.6284ZM50.2449 33.7395C50.7382 33.7395 51.0906 33.5977 51.3724 33.2433C51.6543 32.8889 51.7953 32.4636 51.7953 31.8257C51.7953 31.2586 51.6543 30.7625 51.3724 30.479C51.0906 30.1954 50.7382 29.9828 50.2449 29.9828C49.7516 29.9828 49.3993 30.1245 49.1174 30.479C48.8355 30.8334 48.6946 31.2586 48.6946 31.8966C48.6946 32.5345 48.8355 32.9598 49.1174 33.3142C49.3993 33.5977 49.7516 33.7395 50.2449 33.7395Z" fill="#3A4151"/>
<path d="M54.1208 34.8027V26.7222H55.5302V34.8027H54.1208Z" fill="#3A4151"/>
<path d="M56.6577 34.8019V28.9187H58.0671V34.8019H56.6577ZM56.6577 28.2099V26.8632H58.0671V28.2099H56.6577Z" fill="#3A4151"/>
<path d="M63.0704 34.8027C63 34.6609 62.9295 34.4483 62.9295 34.0939C62.5067 34.6609 61.9429 34.9444 61.0268 34.9444C60.3926 34.9444 59.8993 34.8027 59.4765 34.4483C59.0537 34.0939 58.9127 33.7395 58.9127 33.1724C58.9127 32.1092 59.6879 31.4713 61.1678 31.3295L62.0134 31.2586C62.2953 31.1877 62.5067 31.1169 62.6476 31.046C62.7886 30.9751 62.859 30.7625 62.859 30.6207C62.859 30.3372 62.7886 30.1954 62.6476 30.0536C62.5067 29.9119 62.2248 29.9119 61.802 29.9119C61.3792 29.9119 61.0973 29.9828 60.8859 30.1245C60.6745 30.2663 60.604 30.4789 60.604 30.8333H59.1946C59.2651 29.4866 60.1812 28.8487 61.802 28.8487C63.4228 28.8487 64.198 29.4157 64.198 30.6207V33.7395C64.198 34.2356 64.2684 34.59 64.4094 34.8736H63.0704V34.8027ZM62.4362 33.5268C62.7181 33.3142 62.859 32.9598 62.859 32.4636V31.8966C62.7181 32.0383 62.5067 32.1092 62.2248 32.1092L61.4496 32.1801C61.0973 32.251 60.8154 32.3218 60.6745 32.4636C60.5335 32.6054 60.4631 32.818 60.4631 33.0307C60.4631 33.3142 60.5335 33.4559 60.7449 33.5977C60.8859 33.7395 61.1678 33.8103 61.4496 33.8103C61.802 33.9521 62.1543 33.8103 62.4362 33.5268Z" fill="#3A4151"/>
<path d="M69.9765 29.3449C70.3289 29.6993 70.5403 30.2663 70.5403 30.9042V34.8027H69.1309V31.1878C69.1309 30.479 68.7785 30.0537 68.0034 30.0537C67.651 30.0537 67.3691 30.1954 67.0872 30.479C66.8054 30.7625 66.7349 31.1169 66.7349 31.5422V34.8027H65.3255V28.9196H66.7349V29.7701C67.1577 29.1322 67.7919 28.7778 68.5671 28.7778C69.1309 28.8487 69.6242 28.9904 69.9765 29.3449Z" fill="#3A4151"/>
<path d="M72.2315 34.0939C71.7382 33.5268 71.4564 32.818 71.4564 31.8966C71.4564 30.9751 71.7382 30.1954 72.2315 29.6284C72.7248 29.0613 73.4295 28.7778 74.3456 28.7778C75.1208 28.7778 75.755 28.9904 76.1778 29.4157C76.6007 29.841 76.953 30.3372 77.0235 31.046H75.6141C75.5436 30.6916 75.4027 30.479 75.1913 30.2663C74.9798 30.0537 74.698 29.9828 74.3456 29.9828C73.9228 29.9828 73.5705 30.1245 73.2886 30.479C73.0067 30.8334 72.9362 31.2586 72.9362 31.8966C72.9362 32.5345 73.0772 32.9598 73.2886 33.3142C73.5705 33.6686 73.9228 33.8104 74.3456 33.8104C74.698 33.8104 74.9798 33.7395 75.1913 33.5268C75.4027 33.3142 75.5436 33.0307 75.6141 32.6763H77.0235C76.953 33.3851 76.6711 33.9521 76.1778 34.3774C75.6845 34.8027 75.0503 35.0154 74.2752 35.0154C73.4295 34.9445 72.7248 34.6609 72.2315 34.0939Z" fill="#3A4151"/>
<path d="M83.2953 32.3219H78.9261C78.9966 32.818 79.1376 33.1724 79.4194 33.456C79.7013 33.7395 80.0537 33.8104 80.4765 33.8104C81.1107 33.8104 81.5335 33.5268 81.8154 32.9598H83.1543C83.0134 33.5268 82.661 34.023 82.2382 34.3774C81.7449 34.7318 81.1812 34.8736 80.4765 34.8736C79.6308 34.8736 78.9261 34.5901 78.3624 34.023C77.7986 33.456 77.5872 32.7472 77.5872 31.8257C77.5872 30.9042 77.8691 30.1954 78.3624 29.6284C78.9261 29.0613 79.5604 28.7778 80.4765 28.7778C81.3221 28.7778 82.0268 29.0613 82.5906 29.6284C83.0839 30.1954 83.3657 30.9751 83.3657 31.8966V32.3219H83.2953ZM78.9966 31.3295H81.8859C81.8154 30.9042 81.6745 30.5498 81.3926 30.3372C81.1107 30.0537 80.8288 29.9828 80.406 29.9828C79.6308 29.9119 79.1376 30.4081 78.9966 31.3295Z" fill="#3A4151"/>
<path d="M90.1308 28.8487V30.1954H89.7785C89.2147 30.1954 88.7919 30.3372 88.51 30.6207C88.2282 30.9042 88.0872 31.3295 88.0872 31.8257V34.8027H86.6778V28.9195H88.0872V29.9828C88.4396 29.2031 89.0033 28.8487 89.849 28.8487C89.9194 28.8487 90.0604 28.8487 90.1308 28.8487Z" fill="#3A4151"/>
<path d="M96.1208 32.3219H91.7517C91.8221 32.818 91.9631 33.1724 92.245 33.456C92.5268 33.7395 92.8792 33.8104 93.302 33.8104C93.9362 33.8104 94.3591 33.5268 94.6409 32.9598H95.9799C95.8389 33.5268 95.4866 34.023 95.0638 34.3774C94.5705 34.7318 94.0067 34.8736 93.302 34.8736C92.4564 34.8736 91.7517 34.5901 91.1879 34.023C90.6242 33.456 90.4128 32.7472 90.4128 31.8257C90.4128 30.9042 90.6946 30.1954 91.1879 29.6284C91.7517 29.0613 92.3859 28.7778 93.302 28.7778C94.1476 28.7778 94.8523 29.0613 95.4161 29.6284C95.9094 30.1954 96.1913 30.9751 96.1913 31.8966V32.3219H96.1208ZM91.8221 31.3295H94.7114C94.6409 30.9042 94.5 30.5498 94.2181 30.3372C93.9362 30.0537 93.6544 29.9828 93.2315 29.9828C92.3859 29.9119 91.9631 30.4081 91.8221 31.3295Z" fill="#3A4151"/>
<path d="M102.181 29.6284C102.674 30.1954 102.886 30.9042 102.886 31.8966C102.886 32.818 102.674 33.5268 102.181 34.0939C101.688 34.6609 101.054 34.9445 100.279 34.9445C99.5033 34.9445 98.8691 34.6609 98.4463 34.023V37H97.0369V28.9196H98.3758V29.7701C98.7986 29.1322 99.4329 28.7778 100.208 28.7778C101.054 28.8487 101.688 29.0613 102.181 29.6284ZM99.9262 33.7395C100.419 33.7395 100.772 33.5977 101.054 33.2433C101.336 32.8889 101.476 32.4636 101.476 31.8257C101.476 31.2586 101.336 30.7625 101.054 30.479C100.772 30.1954 100.419 29.9828 99.9262 29.9828C99.4329 29.9828 99.0805 30.1245 98.7986 30.479C98.5168 30.8334 98.3758 31.2586 98.3758 31.8966C98.3758 32.5345 98.5168 32.9598 98.7986 33.3142C99.0805 33.5977 99.4329 33.7395 99.9262 33.7395Z" fill="#3A4151"/>
<path d="M107.537 34.8027C107.466 34.6609 107.396 34.4483 107.396 34.0939C106.973 34.6609 106.409 34.9444 105.493 34.9444C104.859 34.9444 104.366 34.8027 103.943 34.4483C103.52 34.0939 103.379 33.7395 103.379 33.1724C103.379 32.1092 104.154 31.4713 105.634 31.3295L106.48 31.2586C106.762 31.1877 106.973 31.1169 107.114 31.046C107.255 30.9751 107.325 30.7625 107.325 30.6207C107.325 30.3372 107.255 30.1954 107.114 30.0536C106.973 29.9119 106.691 29.9119 106.268 29.9119C105.846 29.9119 105.564 29.9828 105.352 30.1245C105.141 30.2663 105.07 30.4789 105.07 30.8333H103.661C103.732 29.4866 104.648 28.8487 106.268 28.8487C107.889 28.8487 108.664 29.4157 108.664 30.6207V33.7395C108.664 34.2356 108.735 34.59 108.876 34.8736H107.537V34.8027ZM106.903 33.5268C107.185 33.3142 107.325 32.9598 107.325 32.4636V31.8966C107.185 32.0383 106.973 32.1092 106.691 32.1092L105.916 32.1801C105.564 32.251 105.282 32.3218 105.141 32.4636C105 32.6054 104.93 32.818 104.93 33.0307C104.93 33.3142 105 33.4559 105.211 33.5977C105.352 33.7395 105.634 33.8103 105.916 33.8103C106.268 33.9521 106.621 33.8103 106.903 33.5268Z" fill="#3A4151"/>
<path d="M109.721 34.8019V28.9187H111.131V34.8019H109.721ZM109.721 28.2099V26.8632H111.131V28.2099H109.721Z" fill="#3A4151"/>
<path d="M115.782 28.8487V30.1954H115.43C114.866 30.1954 114.443 30.3372 114.161 30.6207C113.879 30.9042 113.738 31.3295 113.738 31.8257V34.8027H112.329V28.9195H113.738V29.9828C114.091 29.2031 114.654 28.8487 115.5 28.8487C115.57 28.8487 115.641 28.8487 115.782 28.8487Z" fill="#3A4151"/>
<path d="M8.87919 36.6456H1.12752C0.845638 36.6456 0.493289 36.5038 0.281879 36.2912C0.0704698 36.0785 0 35.795 0 35.4406V10.4904C0 10.136 0.14094 9.78161 0.422819 9.56897L11.0638 0.637931C12.0503 -0.212644 13.5302 -0.212644 14.5872 0.637931L25.2282 9.63985C25.5101 9.85249 25.651 10.2069 25.651 10.5613V19.8467C25.651 20.4847 25.1577 21.0517 24.453 21.0517H17.8993V27.6437C17.8993 28.2816 17.406 28.8487 16.7718 28.8487H10.1477C10.1477 31.046 10.1477 35.4406 10.1477 35.4406C10.0772 36.1494 9.58389 36.6456 8.87919 36.6456ZM2.3255 34.3065H7.75168V28.9195C7.75168 27.3602 7.75168 26.5096 8.94966 26.5096H15.5034V21.0517H8.87919C7.68121 21.0517 7.68121 20.1303 7.68121 18.9253V13.6801C7.68121 13.3257 7.82215 12.9713 8.10403 12.7586C8.1745 12.6877 11.9799 9.49808 11.9799 9.49808C12.4027 9.14368 13.0369 9.14368 13.4597 9.49808L17.3356 12.7586C17.6174 12.9713 17.7584 13.3257 17.7584 13.6801V18.7126H23.255V11.0575L13.0369 2.40996C12.896 2.2682 12.6846 2.2682 12.5436 2.40996L2.3255 11.0575V34.3065ZM10.0772 18.7126H15.5034V14.1762L12.755 11.908C11.4161 13.0421 10.5705 13.751 10.0067 14.1762C10.0772 15.1686 10.0772 17.3659 10.0772 18.7126Z" fill="url(#paint0_linear)"/>
<path d="M38.1946 8.64751C37.2081 8.64751 36.7148 9.14368 36.7148 10.136V11.1992H39.0403V12.9713H36.7148V22.4693H34.5302V12.9713H32.698V11.1992H34.5302V10.136C34.5302 7.9387 35.6577 6.8046 37.9128 6.8046C38.1242 6.8046 38.547 6.8046 39.1812 6.87548V8.64751H38.1946Z" fill="url(#paint1_linear)"/>
<path d="M47.4967 11.1992H49.6812V22.4694H47.5671V20.7682C46.7215 22.0441 45.5235 22.7529 44.0437 22.7529C42.7752 22.7529 41.8591 22.3985 41.1544 21.6897C40.4497 20.9809 40.0974 19.9885 40.0974 18.7835V11.1992H42.2819V18.5C42.2819 20.0594 43.0571 20.8391 44.6779 20.8391C45.4531 20.8391 46.1578 20.5556 46.7215 19.9885C47.2853 19.4215 47.5671 18.6418 47.5671 17.5786V11.1992H47.4967Z" fill="url(#paint2_linear)"/>
<path d="M60.1108 11.9789C60.8155 12.6877 61.1678 13.6801 61.1678 14.9559V22.5402H58.9833V15.2395C58.9833 13.6801 58.2081 12.9004 56.5873 12.9004C55.8826 12.9004 55.1779 13.1839 54.6141 13.751C54.0504 14.318 53.7685 15.0977 53.7685 16.1609V22.5402H51.5839V11.1992H53.698V12.9004C54.5437 11.6245 55.7416 10.9157 57.2215 10.9157C58.4195 10.9157 59.4061 11.2701 60.1108 11.9789Z" fill="url(#paint3_linear)"/>
<path d="M71.3154 6.87506H73.5V22.4689H71.3859V20.8387C70.5403 22.1145 69.2718 22.7525 67.651 22.7525C66.1007 22.7525 64.8322 22.1854 63.9161 21.1222C63 20.059 62.5067 18.6413 62.5067 16.7984C62.5067 14.9555 63 13.5379 63.9161 12.4747C64.8322 11.4115 66.1007 10.8444 67.651 10.8444C69.2013 10.8444 70.4698 11.4115 71.3154 12.6164V6.87506ZM68.0738 20.9095C69.1309 20.9095 69.906 20.5551 70.4698 19.8463C71.0336 19.1375 71.3154 18.1452 71.3154 16.8693C71.3154 15.5935 71.0336 14.6011 70.4698 13.8923C69.906 13.1835 69.0604 12.8291 68.0738 12.8291C67.0873 12.8291 66.2416 13.1835 65.6779 13.8923C65.1141 14.6011 64.7618 15.6643 64.7618 16.9402C64.7618 18.2161 65.0436 19.1375 65.6779 19.8463C66.3121 20.5551 67.0873 20.9095 68.0738 20.9095Z" fill="url(#paint4_linear)"/>
<path d="M85.6913 20.8391V22.5402C85.339 22.6111 84.9866 22.6111 84.6343 22.6111C83.9296 22.6111 83.4363 22.4693 83.0839 22.2567C82.7316 21.9732 82.5202 21.6188 82.4497 21.0517C81.6745 22.2567 80.4766 22.8237 78.7853 22.8237C77.5168 22.8237 76.6007 22.5402 75.8255 21.9023C75.1208 21.3352 74.7685 20.4847 74.7685 19.4214C74.7685 17.3659 76.1779 16.2318 78.9967 15.9483L80.6175 15.8065C81.1812 15.7356 81.6041 15.5939 81.8859 15.3812C82.1678 15.1686 82.3088 14.8142 82.3088 14.3889C82.3088 13.8218 82.0974 13.3965 81.745 13.1839C81.3927 12.9004 80.8289 12.8295 79.9833 12.8295C79.0672 12.8295 78.4329 12.9713 78.0101 13.2548C77.5873 13.5383 77.3759 14.1054 77.3054 14.8142H75.1208C75.2618 12.2624 76.8826 11.0575 79.9128 11.0575C82.8725 11.0575 84.3524 12.1916 84.3524 14.3889V20.3429C84.3524 20.6973 84.5638 20.91 84.9866 20.91H85.6913V20.8391ZM81.4631 20.272C82.0974 19.7759 82.3792 18.9962 82.3792 18.0038V16.7988C82.0974 17.0115 81.6041 17.1532 80.9698 17.2241L79.4195 17.3659C78.5739 17.4368 78.0101 17.6494 77.5873 17.9329C77.2349 18.2165 77.0235 18.6418 77.0235 19.2088C77.0235 19.7759 77.2349 20.2011 77.5873 20.4847C77.9396 20.7682 78.4329 20.91 79.1376 20.91C80.0537 21.0517 80.8289 20.7682 81.4631 20.272Z" fill="url(#paint5_linear)"/>
<path d="M101.758 12.0498C102.463 12.7586 102.815 13.751 102.815 14.9559V22.5402H100.631V15.2395C100.631 13.6801 99.9262 12.9004 98.4463 12.9004C97.6712 12.9004 97.0369 13.1839 96.5436 13.8218C96.0503 14.3889 95.7685 15.2395 95.7685 16.3736V22.5402H93.5839V15.2395C93.5839 13.6801 92.8792 12.9004 91.3993 12.9004C90.6242 12.9004 89.9899 13.1839 89.4967 13.8218C89.0034 14.3889 88.7215 15.2395 88.7215 16.3736V22.5402H86.5369V11.1992H88.651V12.9004C89.4262 11.6245 90.4832 10.9157 91.8926 10.9157C93.5839 10.9157 94.7114 11.6245 95.3457 13.0421C96.1208 11.6245 97.3188 10.9157 98.7987 10.9157C100.067 10.9157 101.054 11.2701 101.758 12.0498Z" fill="url(#paint6_linear)"/>
<path d="M114.795 17.5786H106.339C106.409 18.7127 106.762 19.4923 107.326 20.0594C107.889 20.6264 108.594 20.91 109.581 20.91C110.99 20.91 111.906 20.272 112.399 18.9962H114.584C114.302 20.1303 113.668 21.0517 112.822 21.6897C111.977 22.3276 110.849 22.682 109.581 22.682C107.96 22.682 106.691 22.115 105.705 21.0517C104.718 19.9885 104.225 18.5709 104.225 16.728C104.225 14.8851 104.718 13.5383 105.705 12.4042C106.691 11.341 107.96 10.774 109.581 10.774C111.201 10.774 112.54 11.341 113.527 12.4751C114.443 13.6092 114.936 15.0268 114.936 16.7989V17.5786H114.795ZM107.326 13.5383C106.762 14.0345 106.409 14.8142 106.339 15.8065H112.54C112.47 14.8851 112.117 14.1763 111.554 13.6092C110.99 13.0422 110.285 12.7586 109.44 12.7586C108.594 12.7586 107.889 13.0422 107.326 13.5383Z" fill="url(#paint7_linear)"/>
<path d="M124.732 11.9789C125.436 12.6877 125.789 13.6801 125.789 14.9559V22.5402H123.604V15.2395C123.604 13.6801 122.829 12.9004 121.208 12.9004C120.503 12.9004 119.799 13.1839 119.235 13.751C118.671 14.318 118.389 15.0977 118.389 16.1609V22.5402H116.205V11.1992H118.319V12.9004C119.164 11.6245 120.362 10.9157 121.842 10.9157C123.04 10.9157 124.027 11.2701 124.732 11.9789Z" fill="url(#paint8_linear)"/>
<path d="M132.624 12.9712H130.369V19.7758C130.369 20.1302 130.44 20.3429 130.651 20.4847C130.862 20.6264 131.144 20.6973 131.638 20.6973H132.624V22.4693C132.131 22.5402 131.708 22.5402 131.285 22.5402C130.228 22.5402 129.453 22.3276 128.96 21.9023C128.466 21.477 128.185 20.8391 128.185 19.9176V12.9004H126.352V11.1283H128.185V7.8678H130.369V11.1283H132.624V12.9712Z" fill="url(#paint9_linear)"/>
<path d="M143.97 20.8391V22.5402C143.617 22.6111 143.265 22.6111 142.913 22.6111C142.208 22.6111 141.715 22.4693 141.362 22.2567C141.01 21.9732 140.799 21.6188 140.728 21.0517C139.953 22.2567 138.755 22.8237 137.064 22.8237C135.795 22.8237 134.879 22.5402 134.104 21.9023C133.399 21.3352 133.047 20.4847 133.047 19.4214C133.047 17.3659 134.456 16.2318 137.275 15.9483L138.896 15.8065C139.46 15.7356 139.883 15.5939 140.164 15.3812C140.446 15.1686 140.587 14.8142 140.587 14.3889C140.587 13.8218 140.376 13.3965 140.024 13.1839C139.671 12.9004 139.107 12.8295 138.262 12.8295C137.346 12.8295 136.711 12.9713 136.289 13.2548C135.866 13.5383 135.654 14.1054 135.584 14.8142H133.399C133.54 12.2624 135.161 11.0575 138.191 11.0575C141.151 11.0575 142.631 12.1916 142.631 14.3889V20.3429C142.631 20.6973 142.842 20.91 143.265 20.91H143.97V20.8391ZM139.742 20.272C140.376 19.7759 140.658 18.9962 140.658 18.0038V16.7988C140.376 17.0115 139.883 17.1532 139.248 17.2241L137.698 17.3659C136.852 17.4368 136.289 17.6494 135.866 17.9329C135.513 18.2165 135.302 18.6418 135.302 19.2088C135.302 19.7759 135.513 20.2011 135.866 20.4847C136.218 20.7682 136.711 20.91 137.416 20.91C138.332 21.0517 139.107 20.7682 139.742 20.272Z" fill="url(#paint10_linear)"/>
<path d="M144.815 22.4689V6.87506H147V22.4689H144.815Z" fill="url(#paint11_linear)"/>
<defs>
<linearGradient id="paint0_linear" x1="32.5344" y1="49.5069" x2="-11.4987" y2="-8.94071" gradientUnits="userSpaceOnUse">
<stop stop-color="#54A1D9"/>
<stop offset="1" stop-color="#45B585"/>
</linearGradient>
<linearGradient id="paint1_linear" x1="51.9139" y1="34.9068" x2="7.88082" y2="-23.5408" gradientUnits="userSpaceOnUse">
<stop stop-color="#54A1D9"/>
<stop offset="1" stop-color="#45B585"/>
</linearGradient>
<linearGradient id="paint2_linear" x1="56.5408" y1="31.4211" x2="12.5077" y2="-27.0265" gradientUnits="userSpaceOnUse">
<stop stop-color="#54A1D9"/>
<stop offset="1" stop-color="#45B585"/>
</linearGradient>
<linearGradient id="paint3_linear" x1="62.8778" y1="26.6469" x2="18.8448" y2="-31.8008" gradientUnits="userSpaceOnUse">
<stop stop-color="#54A1D9"/>
<stop offset="1" stop-color="#45B585"/>
</linearGradient>
<linearGradient id="paint4_linear" x1="72.6317" y1="19.2981" x2="28.5987" y2="-39.1496" gradientUnits="userSpaceOnUse">
<stop stop-color="#54A1D9"/>
<stop offset="1" stop-color="#45B585"/>
</linearGradient>
<linearGradient id="paint5_linear" x1="78.2974" y1="15.0301" x2="34.2643" y2="-43.4176" gradientUnits="userSpaceOnUse">
<stop stop-color="#54A1D9"/>
<stop offset="1" stop-color="#45B585"/>
</linearGradient>
<linearGradient id="paint6_linear" x1="87.4047" y1="8.16892" x2="43.3716" y2="-50.2787" gradientUnits="userSpaceOnUse">
<stop stop-color="#54A1D9"/>
<stop offset="1" stop-color="#45B585"/>
</linearGradient>
<linearGradient id="paint7_linear" x1="97.3916" y1="0.645029" x2="53.3585" y2="-57.8026" gradientUnits="userSpaceOnUse">
<stop stop-color="#54A1D9"/>
<stop offset="1" stop-color="#45B585"/>
</linearGradient>
<linearGradient id="paint8_linear" x1="104.26" y1="-4.5298" x2="60.2273" y2="-62.9775" gradientUnits="userSpaceOnUse">
<stop stop-color="#54A1D9"/>
<stop offset="1" stop-color="#45B585"/>
</linearGradient>
<linearGradient id="paint9_linear" x1="111.187" y1="-9.74831" x2="67.154" y2="-68.1959" gradientUnits="userSpaceOnUse">
<stop stop-color="#54A1D9"/>
<stop offset="1" stop-color="#45B585"/>
</linearGradient>
<linearGradient id="paint10_linear" x1="115.634" y1="-13.0987" x2="71.6013" y2="-71.5464" gradientUnits="userSpaceOnUse">
<stop stop-color="#54A1D9"/>
<stop offset="1" stop-color="#45B585"/>
</linearGradient>
<linearGradient id="paint11_linear" x1="121.746" y1="-17.7034" x2="77.7128" y2="-76.1511" gradientUnits="userSpaceOnUse">
<stop stop-color="#54A1D9"/>
<stop offset="1" stop-color="#45B585"/>
</linearGradient>
</defs>
</svg>
