<svg width="125" height="34" viewBox="0 0 125 34" fill="none" xmlns="http://www.w3.org/2000/svg">
<path d="M17.3188 34C8.16016 34 0.71875 26.5944 0.71875 17.4C0.71875 8.24132 8.16016 0.799927 17.3188 0.799927C26.4774 0.799927 33.9188 8.24132 33.9188 17.4C33.9546 26.5944 26.4774 34 17.3188 34ZM17.3188 1.58699C8.58947 1.58699 1.50583 8.67063 1.50583 17.4C1.50583 26.1293 8.58947 33.2129 17.3188 33.2129C26.0481 33.2129 33.1318 26.1293 33.1318 17.4C33.1675 8.70641 26.0839 1.58699 17.3188 1.58699ZM31.4145 22.1224C31.4145 22.1224 31.3787 22.1582 31.343 22.1224C31.3072 22.1224 31.3072 22.0866 31.3072 22.0508C31.3072 22.0151 31.8796 20.3694 31.8438 18.509C31.8438 16.4698 31.021 15.2534 29.9477 15.2534C29.3037 15.2534 28.8386 15.7185 28.8386 16.3982C28.8386 17.6504 30.3412 17.7219 30.3412 20.4409C30.3412 21.55 30.1266 22.5875 29.733 23.7681C28.0158 29.528 22.6136 32.1754 17.3188 32.1754C14.886 32.1754 13.133 31.6746 12.6321 31.4241C12.5964 31.4241 12.5964 31.3884 12.5964 31.3168C12.5964 31.281 12.6321 31.281 12.6679 31.281C12.8826 31.3526 14.3494 31.8177 16.2097 31.8177C18.249 31.8177 19.4296 30.9948 19.4296 29.9931C19.4296 29.3491 18.9287 28.8483 18.2847 28.8483C17.0326 28.8483 16.961 30.4224 14.2778 30.4224C13.133 30.4224 12.1313 30.2078 10.9149 29.8142C5.19074 28.0612 2.50755 22.6948 2.50755 17.3642C2.50755 14.7525 3.22307 12.6775 3.25884 12.6775C3.25884 12.6775 3.29462 12.6418 3.3304 12.6775C3.36618 12.6775 3.36618 12.7133 3.36618 12.7491C3.29463 12.9637 2.82954 14.4306 2.82954 16.2909C2.82954 18.3301 3.65238 19.5107 4.72566 19.5107C5.33385 19.5107 5.83472 19.0457 5.83472 18.4017C5.83472 17.1495 4.33212 17.0064 4.33212 14.359C4.33212 13.2142 4.54678 12.2125 4.94032 10.9961C6.69334 5.3077 12.0597 2.6245 17.3546 2.58872C19.8231 2.55295 21.9697 3.30424 22.0412 3.37579C22.0412 3.37579 22.077 3.41157 22.0412 3.44734C22.0412 3.48312 22.0054 3.48312 21.9697 3.48312C21.9339 3.48312 20.5386 2.91071 18.4278 2.91071C16.4602 2.91071 15.208 3.73355 15.208 4.80683C15.208 5.41502 15.6731 5.91588 16.3528 5.91588C17.605 5.91588 17.6766 4.4133 20.3598 4.4133C21.5046 4.4133 22.5063 4.62795 23.7227 5.02148C29.4826 6.7745 32.0943 12.2125 32.13 17.4357C32.1658 20.0832 31.4145 22.1224 31.4145 22.1224ZM23.508 18.187C21.9339 18.187 20.7533 19.3319 20.7533 20.7271C20.7533 21.8719 21.433 22.8021 22.3632 22.8021C22.6852 22.8021 23.0072 22.6232 23.0072 22.1939C23.0072 21.5857 22.2201 21.4426 22.2917 20.5482C22.3274 19.9758 22.8998 19.5465 23.4365 19.5465C24.5455 19.5465 25.0464 20.6198 25.0464 21.7289C25.0106 23.4461 23.7585 24.6267 22.2917 24.6267C20.3598 24.6267 19.1076 22.8021 19.1076 20.7987C19.1076 17.865 21.0395 16.7202 22.0412 16.434C22.0412 16.434 24.6886 16.8991 24.6171 15.7543C24.5813 15.2534 23.83 15.0387 23.2576 15.0387C22.6494 15.003 22.0412 15.2176 22.0412 15.2176C21.7192 15.0387 21.5046 14.7525 21.3615 14.359C23.2576 12.928 24.5813 11.5685 24.5813 9.99434C24.5813 9.17149 24.0447 8.4202 22.9714 8.4202C21.0753 8.4202 19.6442 10.8172 19.6442 12.9637C19.6442 13.3215 19.6442 13.715 19.7516 14.037C18.571 14.8956 17.6766 15.4681 16.0666 16.434C16.0666 16.2194 16.1024 15.7185 16.2455 15.0387C16.7822 14.4306 17.5692 13.5362 17.5692 12.8564C17.5692 12.5344 17.3903 12.2482 16.9968 12.2482C16.0666 12.2482 15.3869 13.6435 15.208 14.6094C14.7787 15.1103 13.9559 15.7543 13.2761 15.7543C12.7395 15.7543 12.5248 15.2534 12.489 15.0745C14.2421 14.4663 16.3886 12.0693 16.3886 9.92279C16.3886 9.4577 16.2097 8.45598 14.8145 8.45598C12.7395 8.45598 10.9865 11.5327 10.9865 13.9297C10.2352 13.9297 9.98473 13.1426 9.98473 12.5344C9.98473 11.9262 10.1994 11.3538 10.1994 11.1392C10.1994 10.9603 10.092 10.7099 9.84162 10.7099C9.16187 10.7099 8.73257 11.64 8.73257 12.6775C8.76835 14.1443 9.73429 15.0745 11.0222 15.1818C11.2011 16.0405 11.9882 16.8991 12.9541 16.8991C13.5623 16.8991 14.2778 16.7202 14.7787 16.2551C14.7429 16.5771 14.6714 16.8633 14.6356 17.1138C12.5964 18.187 11.1296 18.9026 9.80585 20.1189C8.73257 21.0849 8.16015 22.3728 8.16015 23.3745C8.16015 24.7698 9.01878 26.0577 10.8433 26.0577C12.9541 26.0577 14.564 24.3405 15.3511 22.0151C15.7089 20.906 15.852 19.2961 15.9593 17.8293C18.0701 16.6487 19.0718 15.9332 20.1809 15.1461C20.324 15.3607 20.4671 15.5754 20.646 15.6827C19.68 16.1836 17.3903 17.6146 17.3903 20.9776C17.3903 23.3745 19.0003 26.022 22.1843 26.022C24.796 26.022 26.5848 23.8754 26.5848 21.8004C26.5848 19.94 25.5115 18.187 23.508 18.187ZM10.8433 24.6267C10.1636 24.6625 9.69851 24.2332 9.69851 23.4819C9.69851 21.5142 12.4533 19.6181 14.4925 18.6163C14.1347 21.3353 13.2046 24.5194 10.8433 24.6267ZM12.3817 13.7508C12.3817 12.2482 13.8843 9.35037 14.8145 9.63658C15.852 10.0301 13.8843 12.928 12.3817 13.7508ZM21.0753 13.0711C21.0753 11.1749 22.3632 9.35037 23.0429 9.70813C23.83 10.1017 22.4348 11.8547 21.0753 13.0711Z" fill="#003B6B"/>
<path d="M41.2529 17.3999C41.2529 15.6111 42.6482 14.2159 44.5443 14.2159C45.6176 14.2159 46.3689 14.5379 47.0129 15.1103L46.0111 16.2909C45.5818 15.9331 45.1525 15.7185 44.5443 15.7185C43.6499 15.7185 43.0059 16.4698 43.0059 17.3999C43.0059 18.3659 43.6857 19.0814 44.6516 19.0814C45.0452 19.0814 45.3672 19.0099 45.6176 18.831V18.1155H44.4012V16.8633H47.1917V19.6181C46.5478 20.1547 45.6534 20.5482 44.5443 20.5482C42.6482 20.5482 41.2529 19.2603 41.2529 17.3999Z" fill="#003B6B"/>
<path d="M49.0161 14.3591H53.8816V15.7901H50.6618V16.7203H53.5954V18.044H50.6618V19.0099H53.9532V20.441H49.0161V14.3591Z" fill="#003B6B"/>
<path d="M61.0371 14.3232H62.647L65.2229 20.4409H63.3983L62.969 19.3677H60.6078L60.1784 20.4409H58.3896L61.0371 14.3232ZM62.5397 18.0439L61.8599 16.3267L61.1802 18.0439H62.5397Z" fill="#003B6B"/>
<path d="M66.7256 14.3591H69.3372C70.8756 14.3591 71.8773 15.1461 71.8773 16.5056V16.5414C71.8773 17.9724 70.7683 18.7237 69.2657 18.7237H68.4428V20.4768H66.7614V14.3591H66.7256ZM69.1941 17.3642C69.8023 17.3642 70.1601 17.0423 70.1601 16.5772V16.5414C70.1601 16.0048 69.8023 15.7543 69.1941 15.7543H68.4071V17.3642H69.1941Z" fill="#003B6B"/>
<path d="M73.4512 14.3591H76.0628C77.6012 14.3591 78.6029 15.1461 78.6029 16.5056V16.5414C78.6029 17.9724 77.4939 18.7237 75.9913 18.7237H75.1684V20.4768H73.487V14.3591H73.4512ZM75.9197 17.3642C76.5279 17.3642 76.8857 17.0423 76.8857 16.5772V16.5414C76.8857 16.0048 76.5279 15.7543 75.9197 15.7543H75.1326V17.3642H75.9197Z" fill="#003B6B"/>
<path d="M80.1411 14.3591H81.8226V18.9742H84.792V20.441H80.1411V14.3591Z" fill="#003B6B"/>
<path d="M88.0838 14.3591H86.4023V20.441H88.0838V14.3591Z" fill="#003B6B"/>
<path d="M92.1977 14.3232H93.8076L96.3835 20.4409H94.5589L94.1296 19.3677H91.7684L91.3391 20.4409H89.5503L92.1977 14.3232ZM93.6645 18.0439L92.9848 16.3267L92.305 18.0439H93.6645Z" fill="#003B6B"/>
<path d="M97.8506 14.3591H99.4247L101.929 17.5789V14.3591H103.611V20.441H102.108L99.5321 17.1138V20.441H97.8506V14.3591Z" fill="#003B6B"/>
<path d="M105.328 17.3999C105.328 15.6111 106.687 14.2159 108.547 14.2159C109.8 14.2159 110.587 14.7525 111.123 15.468L109.871 16.434C109.513 16.0047 109.12 15.7185 108.547 15.7185C107.689 15.7185 107.081 16.434 107.081 17.3284V17.3642C107.081 18.2586 107.689 18.9741 108.547 18.9741C109.191 18.9741 109.549 18.6879 109.907 18.2228L111.159 19.1172C110.587 19.9042 109.8 20.4767 108.476 20.4767C106.723 20.5482 105.328 19.2245 105.328 17.3999Z" fill="#003B6B"/>
<path d="M112.769 14.3589H117.635V15.7899H114.415V16.7201H117.348V18.0438H114.415V19.0098H117.706V20.4408H112.769V14.3589Z" fill="#003B6B"/>
<path d="M118.958 19.5464L119.888 18.4374C120.496 18.9025 121.14 19.1529 121.856 19.1529C122.321 19.1529 122.536 19.0098 122.536 18.7236V18.6878C122.536 18.4374 122.321 18.2943 121.498 18.1154C120.21 17.8292 119.208 17.4714 119.208 16.2193C119.208 15.0744 120.103 14.2874 121.57 14.2874C122.607 14.2874 123.394 14.5736 124.074 15.1102L123.215 16.2908C122.643 15.8973 122.035 15.6826 121.498 15.6826C121.105 15.6826 120.89 15.8615 120.89 16.0762V16.1119C120.89 16.3981 121.105 16.5055 121.927 16.7201C123.323 17.0421 124.181 17.4714 124.181 18.6162C124.181 19.8684 123.215 20.5839 121.713 20.5839C120.747 20.5481 119.709 20.1904 118.958 19.5464Z" fill="#003B6B"/>
</svg>
