<svg width="36" height="36" viewBox="0 0 36 36" fill="none" xmlns="http://www.w3.org/2000/svg">
<g clip-path="url(#clip0)">
<path d="M18 35.999C27.9411 35.999 36 27.9401 36 17.999C36 8.0579 27.9411 -0.000976562 18 -0.000976562C8.05888 -0.000976562 0 8.0579 0 17.999C0 27.9401 8.05888 35.999 18 35.999Z" fill="#6B717D"/>
<path d="M6.26686 18.1637C6.203 21.2607 8.33613 24.2162 11.2705 25.1801C14.0344 26.1087 17.4327 25.414 19.2719 23.0469C20.6147 21.3884 20.9199 19.1773 20.7745 17.1115C18.4075 17.0904 16.0405 17.0974 13.677 17.1009C13.6731 17.9442 13.677 18.7842 13.6805 19.6275C15.0978 19.6666 16.5154 19.6486 17.9326 19.6772C17.5749 20.9032 16.7599 22.0442 15.5229 22.487C13.1347 23.5395 10.0874 22.1646 9.33595 19.6592C8.42886 17.2601 9.91383 14.3649 12.3656 13.667C13.8858 13.1321 15.452 13.7344 16.7528 14.5247C17.4119 13.908 18.0286 13.2489 18.6344 12.5828C17.1564 11.3462 15.2572 10.588 13.3048 10.7545C9.47392 10.8001 6.1215 14.3367 6.26686 18.1637ZM25.3812 14.9742C25.3742 15.6795 25.3668 16.3883 25.3633 17.0932C24.6545 17.1003 23.9495 17.1038 23.2443 17.1074V19.2193C23.9495 19.2228 24.6583 19.2264 25.3633 19.2338C25.3703 19.939 25.3703 20.644 25.3774 21.3528C26.0791 21.3528 26.7844 21.3492 27.4893 21.3528C27.4932 20.644 27.4964 19.939 27.5038 19.2302L29.6228 19.2196V17.1077C28.9178 17.1042 28.209 17.1006 27.5038 17.0936C27.4999 16.3883 27.4932 15.6795 27.4893 14.9746L25.3812 14.9742Z" fill="#DC4E41"/>
<path d="M6.26686 18.1637C6.1215 14.3368 9.4736 10.8002 13.3044 10.7543C15.2569 10.5877 17.1564 11.346 18.634 12.5826C18.0279 13.249 17.4112 13.9078 16.7525 14.5245C15.4517 13.7342 13.8855 13.1319 12.3653 13.6668C9.91319 14.365 8.42822 17.2602 9.33563 19.659C10.0871 22.1643 13.1344 23.5392 15.5226 22.4868C16.7592 22.044 17.5745 20.903 17.9323 19.6769C16.515 19.6487 15.0974 19.6664 13.6802 19.6272C13.6766 18.784 13.6731 17.9439 13.6766 17.1007C16.0401 17.0972 18.4072 17.0901 20.7742 17.1113C20.9196 19.1774 20.6147 21.3884 19.2716 23.0467C17.4324 25.4137 14.0344 26.1084 11.2701 25.1798C8.33645 24.2162 6.203 21.2607 6.26686 18.1637ZM25.3812 14.9743H27.4893C27.4932 15.6796 27.4999 16.3884 27.5038 17.0933C28.2087 17.1004 28.9175 17.1039 29.6228 17.1074V19.2194L27.5038 19.23C27.4967 19.9388 27.4932 20.6437 27.4893 21.3525C26.7844 21.349 26.0788 21.3525 25.3774 21.3525C25.3706 20.6437 25.3706 19.9388 25.3633 19.2335C24.6583 19.2261 23.9495 19.2229 23.2443 19.2191V17.1071C23.9495 17.1036 24.6548 17.1001 25.3633 17.093C25.3668 16.3884 25.3738 15.6796 25.3812 14.9743Z" fill="#C4C6CA"/>
</g>
<defs>
<clipPath id="clip0">
<rect width="36" height="36" fill="white"/>
</clipPath>
</defs>
</svg>
