<svg width="36" height="36" viewBox="0 0 36 36" fill="none" xmlns="http://www.w3.org/2000/svg">
<path d="M2.52336 35.5441C1.12951 35.5441 0 34.3921 0 33.0002V24.3366C0 22.9447 1.12951 21.8168 2.52336 21.8168C3.91722 21.8168 5.04673 22.9447 5.04673 24.3366V33.0002C5.07076 34.3921 3.91722 35.5441 2.52336 35.5441Z" fill="url(#paint0_linear)"/>
<path d="M7.64221 34.4162C8.02672 34.8481 8.53139 35.1361 9.10816 35.1841L16.1496 35.9761C17.952 36.1921 19.6102 34.9201 19.8745 33.1202L21.4606 25.2246C21.749 23.8327 20.6916 22.5128 19.2737 22.4648L16.1976 22.3448C15.717 22.3208 15.4286 21.8168 15.6449 21.4088L17.5674 17.617C18.0721 16.5851 17.6876 15.3611 16.7023 14.8091C15.8371 14.3292 14.7317 14.5212 14.0828 15.2411L6.75302 23.3767V32.0643C6.75302 32.9282 7.06544 33.7682 7.64221 34.4162Z" fill="url(#paint1_linear)"/>
<path d="M29.4873 17.689C28.8385 17.689 28.2136 17.353 27.8772 16.7771L27.3965 15.9371H26.0507L25.5941 16.7531C25.0895 17.641 23.9599 17.953 23.0467 17.449L21.0521 16.3451C20.6195 16.1051 20.3071 15.6971 20.1869 15.2171C20.0668 14.7372 20.1148 14.2332 20.3551 13.8012L20.8358 12.9852L20.1629 11.8333H19.2016C18.1682 11.8333 17.3511 10.9933 17.3511 9.9854V7.75351C17.3511 6.72156 18.1923 5.9056 19.2016 5.9056H20.1629L20.8358 4.75366L20.3792 3.9617C20.1148 3.52972 20.0668 3.02574 20.1869 2.54577C20.3071 2.06579 20.6195 1.65781 21.0521 1.41782L23.0227 0.265882C23.4553 0.0258936 23.9599 -0.0461028 24.4406 0.0738912C24.9212 0.193885 25.3298 0.50587 25.5701 0.937848L26.0267 1.75381H27.3725L27.8531 0.913849C28.3578 0.0498924 29.5113 -0.262092 30.3765 0.241883L32.3231 1.36983C32.7557 1.60981 33.0681 2.01779 33.1883 2.49777C33.3084 2.97775 33.2363 3.48172 32.996 3.9137L32.5154 4.70566L33.1883 5.8576H34.1495C35.1829 5.8576 36 6.69756 36 7.70551V9.9374C36 10.9693 35.1589 11.7853 34.1495 11.7853H33.1883L32.5154 12.9373L32.996 13.7292C33.2603 14.1612 33.3324 14.6652 33.1883 15.1451C33.0441 15.6251 32.7557 16.0331 32.2991 16.2731L30.3284 17.377C30.0881 17.617 29.7757 17.689 29.4873 17.689ZM25.2096 14.5452H28.1896L29.0788 16.0811C29.1989 16.2971 29.4633 16.3691 29.6796 16.2491L31.6502 15.1451C31.7463 15.0971 31.8184 15.0011 31.8665 14.8812C31.8905 14.7612 31.8905 14.6412 31.8184 14.5452L30.9052 13.0332L32.3952 10.4654H34.1736C34.4139 10.4654 34.6302 10.2734 34.6302 10.0334V7.80151C34.6302 7.56152 34.4379 7.34553 34.1736 7.34553H32.3952L30.9052 4.77766L31.7944 3.26573C31.8665 3.16974 31.8665 3.04974 31.8425 2.92975C31.8184 2.80975 31.7463 2.71376 31.6262 2.66576L29.6796 1.53782C29.4633 1.41782 29.1989 1.48982 29.0788 1.70581L28.1656 3.21773H25.1856L24.3204 1.70581C24.2724 1.60981 24.1762 1.53782 24.0561 1.48982C23.9359 1.46582 23.8158 1.46582 23.7196 1.53782L21.749 2.66576C21.6529 2.71376 21.5808 2.83375 21.5327 2.92975C21.5087 3.04974 21.5087 3.16974 21.5808 3.26573L22.47 4.75366L20.98 7.32153H19.2016C18.9613 7.32153 18.745 7.51352 18.745 7.77751V10.0094C18.745 10.2494 18.9373 10.4414 19.2016 10.4414H20.98L22.47 12.9852L21.6048 14.4972C21.5567 14.5932 21.5327 14.7132 21.5567 14.8332C21.5808 14.9531 21.6529 15.0491 21.773 15.0971L23.7437 16.2251C23.9599 16.3451 24.2243 16.2731 24.3445 16.0571L25.2096 14.5452Z" fill="white"/>
<path d="M26.6996 12.0013C24.9693 12.0013 23.5514 10.5854 23.5514 8.85747C23.5514 7.12955 24.9693 5.71362 26.6996 5.71362C28.4299 5.71362 29.8478 7.12955 29.8478 8.85747C29.8478 10.6094 28.4299 12.0013 26.6996 12.0013ZM26.6996 7.12955C25.7383 7.12955 24.9453 7.92151 24.9453 8.85747C24.9453 9.81742 25.7383 10.5854 26.6996 10.5854C27.6609 10.5854 28.4539 9.79342 28.4539 8.85747C28.4539 7.89751 27.6609 7.12955 26.6996 7.12955Z" fill="white"/>
<defs>
<linearGradient id="paint0_linear" x1="23.5" y1="36" x2="-6" y2="19" gradientUnits="userSpaceOnUse">
<stop stop-color="#54AAD9"/>
<stop offset="1" stop-color="#45B585"/>
</linearGradient>
<linearGradient id="paint1_linear" x1="75.4555" y1="36.7125" x2="22.316" y2="-20.5682" gradientUnits="userSpaceOnUse">
<stop stop-color="#54AAD9"/>
<stop offset="1" stop-color="#45B585"/>
</linearGradient>
</defs>
</svg>
