<svg width="112" height="10" viewBox="0 0 112 10" fill="none" xmlns="http://www.w3.org/2000/svg">
<path d="M9.25589 3.6939L12.3154 0.333374H8.88797L6.37068 3.59734C6.10451 3.88521 5.73641 4.05839 5.3444 4.08017H4.76349V0.333374H0V9.3141H4.74413V6.55229H5.49931C5.651 6.53807 5.80317 6.5738 5.93256 6.65402C6.06195 6.73424 6.16143 6.85454 6.21577 6.99649L7.53251 9.3141H13.3416L10.6114 4.81408C10.4474 4.59049 10.2311 4.41027 9.9814 4.28909C9.73165 4.16791 9.456 4.10945 9.17843 4.1188C9.00416 4.1188 8.84925 4.1188 9.17843 3.6939" fill="#B42C2C"/>
<path d="M14.8135 9.31441H19.2865V4.09979H14.8135V9.31441Z" fill="#B42C2C"/>
<path d="M17.1177 3.65575C18.357 3.55918 19.3252 2.92184 19.2864 2.20724C19.2477 1.49265 18.1827 1.00981 16.9434 1.12569C15.7041 1.24157 14.6972 1.82097 14.794 2.53557C14.8909 3.25016 15.8784 3.733 17.1177 3.65575Z" fill="#B42C2C"/>
<path d="M21.0483 4.06093H22.5587V2.30341H26.78V4.06093H28.5421V5.77982H26.8381V6.80343C26.8381 7.84635 28.0387 7.7691 28.5615 7.30557V8.85065C27.7218 9.23849 26.8125 9.45376 25.8876 9.48362C24.9628 9.51348 24.0414 9.35733 23.1784 9.02447C22.9681 8.91322 22.7964 8.74122 22.6858 8.53099C22.5753 8.32077 22.531 8.08213 22.5587 7.84635V5.91501H21.0483" fill="#B42C2C"/>
<path d="M38.8631 4.35114C37.7654 3.83842 36.5709 3.56464 35.359 3.54799C34.1471 3.53134 32.9454 3.7722 31.834 4.25457C29.3361 5.60651 29.3748 7.80824 31.834 9.06361C32.9709 9.4932 34.1853 9.68076 35.3992 9.61424C36.6131 9.54772 37.7996 9.22858 38.8825 8.67734V7.22884C38.3661 7.55275 37.7865 7.76333 37.1822 7.84657C36.5779 7.92982 35.9627 7.88384 35.3776 7.71167C35.1337 7.63065 34.9258 7.46723 34.7898 7.24963C34.6537 7.03203 34.5982 6.7739 34.6326 6.51979C34.667 6.26567 34.7893 6.03151 34.9784 5.85773C35.1674 5.68394 35.4113 5.58143 35.6681 5.56788C36.7695 5.34824 37.9132 5.51901 38.9018 6.05072" fill="#B42C2C"/>
<path d="M40.3735 1.12581V9.37263H44.5755V6.78464C44.5483 6.63969 44.5522 6.49064 44.587 6.34733C44.6219 6.20401 44.6867 6.06969 44.7774 5.95322C44.8681 5.83676 44.9825 5.74079 45.1131 5.67166C45.2437 5.60254 45.3875 5.56182 45.535 5.55219C45.6826 5.54256 45.8305 5.56425 45.969 5.61582C46.1075 5.66739 46.2335 5.74767 46.3386 5.85136C46.4437 5.95505 46.5256 6.0798 46.5788 6.21737C46.632 6.35493 46.6554 6.5022 46.6474 6.64944V9.31469H50.8493V6.07004C50.8493 4.52497 48.0997 2.80608 44.6142 4.5636V1.06787" fill="#B42C2C"/>
<path d="M64.4233 4.08079V9.31472H68.9157V6.49496C68.9157 5.52929 70.9489 5.06577 70.9489 6.49496V9.23747H74.9379V6.08938C74.9572 4.60225 72.7885 2.67091 68.9157 4.66019V4.08079" fill="#B42C2C"/>
<path d="M91.0098 9.31401H95.5022V4.08008H91.0098V9.31401Z" fill="#B42C2C"/>
<path d="M93.3335 3.65521C94.5727 3.55865 95.5409 2.92131 95.4828 2.20671C95.4248 1.49211 94.3985 1.00928 93.1592 1.08653C91.9199 1.16379 90.9517 1.82044 91.0098 2.51572C91.0679 3.21101 92.0942 3.73247 93.3335 3.65521Z" fill="#B42C2C"/>
<path fill-rule="evenodd" clip-rule="evenodd" d="M109.986 2.59312V2.01371H110.393C110.587 2.01371 110.8 2.01372 110.8 2.2841C110.8 2.55449 110.587 2.59312 110.335 2.59312H109.986ZM110.354 4.36995C110.683 4.36614 111.003 4.2655 111.274 4.08069C111.545 3.89588 111.756 3.63516 111.879 3.33135C112.002 3.02753 112.032 2.6942 111.966 2.37328C111.899 2.05237 111.739 1.75823 111.506 1.52787C111.272 1.29751 110.975 1.14123 110.653 1.07869C110.33 1.01615 109.996 1.05015 109.693 1.17641C109.39 1.30267 109.131 1.51555 108.949 1.78826C108.767 2.06097 108.67 2.38132 108.67 2.709C108.667 2.92949 108.709 3.14826 108.793 3.35224C108.877 3.55623 109.001 3.74125 109.158 3.89627C109.315 4.05129 109.502 4.17313 109.708 4.25451C109.913 4.33589 110.133 4.37515 110.354 4.36995ZM108.999 2.709C108.976 2.51921 108.994 2.32674 109.051 2.1443C109.108 1.96185 109.203 1.79357 109.331 1.65057C109.458 1.50757 109.614 1.39309 109.789 1.31469C109.963 1.2363 110.153 1.19576 110.345 1.19576C110.536 1.19576 110.726 1.2363 110.9 1.31469C111.075 1.39309 111.231 1.50757 111.359 1.65057C111.486 1.79357 111.581 1.96185 111.638 2.1443C111.695 2.32674 111.713 2.51921 111.69 2.709C111.713 2.89879 111.695 3.09125 111.638 3.2737C111.581 3.45614 111.486 3.62442 111.359 3.76742C111.231 3.91042 111.075 4.0249 110.9 4.1033C110.726 4.1817 110.536 4.22223 110.345 4.22223C110.153 4.22223 109.963 4.1817 109.789 4.1033C109.614 4.0249 109.458 3.91042 109.331 3.76742C109.203 3.62442 109.108 3.45614 109.051 3.2737C108.994 3.09125 108.976 2.89879 108.999 2.709V2.709ZM109.986 2.84419H110.335L110.838 3.67467H111.148L110.606 2.82488C110.896 2.82488 111.109 2.65106 111.109 2.30342C111.109 1.95577 110.877 1.76264 110.432 1.76264H109.715V3.69398H109.986" fill="#B42C2C"/>
<path fill-rule="evenodd" clip-rule="evenodd" d="M57.1812 5.9731H58.8465C58.8465 5.43232 58.4205 5.16194 57.9558 5.16194C57.8515 5.16444 57.7487 5.18741 57.6534 5.22954C57.558 5.27167 57.4719 5.33212 57.4 5.40745C57.3281 5.48278 57.2717 5.57151 57.2342 5.66857C57.1966 5.76562 57.1786 5.8691 57.1812 5.9731V5.9731ZM62.8935 7.30572C60.9266 7.18888 58.9545 7.18888 56.9876 7.30572C57.8783 8.73491 61.4412 8.52247 62.6418 7.57611L62.5063 8.79285C60.1245 10.2027 52.8244 10.1448 52.8244 6.86152C52.7275 3.96451 57.0263 3.53961 57.9751 3.53961C60.202 3.53961 63.4551 4.58253 62.9903 7.40229" fill="#B42C2C"/>
<path fill-rule="evenodd" clip-rule="evenodd" d="M80.1855 5.72181L81.5022 3.26901L82.5672 5.72181H80.1855ZM75.9448 9.29479H78.3847L79.4303 7.36345H83.3031L84.2132 9.29479H90.0223L85.4524 0.333374H79.6433C80.2049 0.565135 80.3791 0.93209 80.2049 1.2411" fill="#B42C2C"/>
<path fill-rule="evenodd" clip-rule="evenodd" d="M103.538 5.97309C102.783 5.43231 101.33 5.56751 101.33 6.45592C101.33 7.73061 103.054 7.51816 103.538 7.13189V5.97309ZM107.779 1.12543V9.3143H103.538V8.75422C101.447 10.3765 96.7412 9.50744 96.7412 6.82288C96.7412 3.59754 101.853 3.17265 103.577 4.29282V1.12543" fill="#B42C2C"/>
</svg>
