<svg width="16" height="16" viewBox="0 0 16 16" fill="none" xmlns="http://www.w3.org/2000/svg">
<path d="M14.8965 7.88088C14.8965 11.3292 12.326 14.2759 8.87774 14.7147C8.31348 14.7774 7.74922 14.7774 7.18495 14.7147C3.4232 14.2132 0.727274 10.7649 1.22884 7.00313C1.60502 3.86834 4.05016 1.4232 7.18495 1.04702C7.74922 0.984326 8.31348 0.984326 8.87774 1.04702C12.326 1.48589 14.8965 4.4326 14.8965 7.88088Z" stroke="#3A4151" stroke-width="1.1" stroke-linecap="round" stroke-linejoin="round"/>
<path d="M7.37305 14.7147C4.05017 10.7649 4.05017 4.99687 7.37305 1.04703" stroke="#3A4151" stroke-width="1.1" stroke-linecap="round" stroke-linejoin="round"/>
<path d="M8.62695 1.04703C10.257 2.92791 11.1348 5.37305 11.1348 7.88088C11.1348 10.3887 10.257 12.8339 8.62695 14.7147" stroke="#3A4151" stroke-width="1.1" stroke-linecap="round" stroke-linejoin="round"/>
<path d="M14.2696 9.76175H1.73041" stroke="#3A4151" stroke-width="1.1" stroke-linecap="round" stroke-linejoin="round"/>
<path d="M1.73041 6H14.2696" stroke="#3A4151" stroke-width="1.1" stroke-linecap="round" stroke-linejoin="round"/>
</svg>
