<svg width="32" height="33" viewBox="0 0 32 33" fill="none" xmlns="http://www.w3.org/2000/svg">
<path d="M25.9879 29.9637L22.5939 25.6C24.4364 23.8546 24.9212 21.0425 23.6606 18.7152C22.8848 17.4546 21.7212 16.4849 20.2667 16.097C18.8121 15.7091 17.3576 15.9031 16 16.6788C13.3818 18.2303 12.4121 21.6243 13.9636 24.3394C14.2545 24.8243 14.6424 25.2122 15.0303 25.6L11.6364 29.9637C11.4424 30.1576 11.6364 30.4485 11.9273 30.3516L15.0303 29.3819L15.7091 32.4849C15.7091 32.6788 16.097 32.7758 16.1939 32.4849L18.4242 26.9576C18.5212 26.9576 18.7152 26.9576 18.8121 26.9576C18.9091 26.9576 19.103 26.9576 19.2 26.9576L21.4303 32.4849C21.5273 32.6788 21.8182 32.6788 21.9152 32.4849L22.5939 29.3819L25.697 30.3516C25.9879 30.3516 26.0848 30.0607 25.9879 29.9637ZM20.6545 24.6303C18.9091 25.6 16.6788 25.0182 15.7091 23.2728C14.7394 21.5273 15.3212 19.297 17.0667 18.3273C18.8121 17.3576 21.0424 17.9394 22.0121 19.6849C22.9818 21.4303 22.4 23.6607 20.6545 24.6303Z" fill="white"/>
<path d="M18.8121 23.0788C19.7226 23.0788 20.4606 22.3408 20.4606 21.4303C20.4606 20.5199 19.7226 19.7819 18.8121 19.7819C17.9017 19.7819 17.1636 20.5199 17.1636 21.4303C17.1636 22.3408 17.9017 23.0788 18.8121 23.0788Z" fill="url(#paint0_linear)"/>
<path d="M23.5636 9.40607H8.43636C7.85455 9.40607 7.46667 9.01819 7.46667 8.43637C7.46667 7.85455 7.85455 7.46667 8.43636 7.46667H23.4667C24.0485 7.46667 24.4364 7.85455 24.4364 8.43637C24.4364 9.01819 24.0485 9.40607 23.5636 9.40607Z" fill="white"/>
<path d="M32 2.90909V22.303C32 23.9515 30.7394 25.2121 29.0909 25.2121H26.9576C26.3758 25.2121 25.9879 24.7273 25.9879 24.2424V24.1455C26.0848 21.8182 27.8303 19.8788 30.0606 19.3939V5.91515C28.1212 5.52727 26.5697 3.97576 26.1818 2.03636H5.81818C5.4303 3.97576 3.87879 5.52727 1.93939 5.91515V19.3939C3.87879 19.7818 5.4303 21.3333 5.81818 23.2727H10.9576C11.4424 23.2727 11.9273 23.6606 11.9273 24.2424C11.9273 24.7273 11.4424 25.2121 10.9576 25.2121H2.90909C1.26061 25.2121 0 23.9515 0 22.303V2.90909C0 1.26061 1.26061 0 2.90909 0H29.0909C30.7394 0 32 1.35758 32 2.90909Z" fill="url(#paint1_linear)"/>
<defs>
<linearGradient id="paint0_linear" x1="32.5148" y1="23.1883" x2="25.0885" y2="11.5485" gradientUnits="userSpaceOnUse">
<stop stop-color="#54AAD9"/>
<stop offset="1" stop-color="#45B585"/>
</linearGradient>
<linearGradient id="paint1_linear" x1="148.997" y1="26.0494" x2="98.7392" y2="-73.93" gradientUnits="userSpaceOnUse">
<stop stop-color="#54AAD9"/>
<stop offset="1" stop-color="#45B585"/>
</linearGradient>
</defs>
</svg>
