<svg width="15" height="19" viewBox="0 0 15 19" fill="none" xmlns="http://www.w3.org/2000/svg">
<path d="M7.87781 1.00622C11.7229 1.21873 14.4307 4.77816 13.9433 8.55009C13.3476 12.8533 9.77328 16.2002 8.20275 17.4752C7.82366 17.794 7.22794 17.794 6.79469 17.4752C5.11586 16.0939 1 12.2158 1 7.38132C1 3.76877 4.08689 0.846847 7.87781 1.00622Z" stroke="#3A4151" stroke-width="1.25" stroke-miterlimit="10"/>
<path d="M7.49998 10.2857C9.03849 10.2857 10.2857 9.03852 10.2857 7.50001C10.2857 5.9615 9.03849 4.71429 7.49998 4.71429C5.96147 4.71429 4.71426 5.9615 4.71426 7.50001C4.71426 9.03852 5.96147 10.2857 7.49998 10.2857Z" stroke="#3A4151" stroke-width="1.25" stroke-miterlimit="10"/>
</svg>
