<svg width="26" height="37" viewBox="0 0 26 37" fill="none" xmlns="http://www.w3.org/2000/svg">
<path d="M8.87919 36.6456H1.12752C0.845638 36.6456 0.493289 36.5038 0.281879 36.2912C0.0704698 36.0785 0 35.795 0 35.4406V10.4904C0 10.136 0.14094 9.78161 0.422819 9.56897L11.0638 0.637931C12.0503 -0.212644 13.5302 -0.212644 14.5872 0.637931L25.2282 9.63985C25.5101 9.85249 25.651 10.2069 25.651 10.5613V19.8467C25.651 20.4847 25.1577 21.0517 24.453 21.0517H17.8993V27.6437C17.8993 28.2816 17.406 28.8487 16.7718 28.8487H10.1477C10.1477 31.046 10.1477 35.4406 10.1477 35.4406C10.0772 36.1494 9.58389 36.6456 8.87919 36.6456ZM2.3255 34.3065H7.75168V28.9195C7.75168 27.3602 7.75168 26.5096 8.94966 26.5096H15.5034V21.0517H8.87919C7.68121 21.0517 7.68121 20.1303 7.68121 18.9253V13.6801C7.68121 13.3257 7.82215 12.9713 8.10403 12.7586C8.1745 12.6877 11.9799 9.49808 11.9799 9.49808C12.4027 9.14368 13.0369 9.14368 13.4597 9.49808L17.3356 12.7586C17.6174 12.9713 17.7584 13.3257 17.7584 13.6801V18.7126H23.255V11.0575L13.0369 2.40996C12.896 2.2682 12.6846 2.2682 12.5436 2.40996L2.3255 11.0575V34.3065ZM10.0772 18.7126H15.5034V14.1762L12.755 11.908C11.4161 13.0421 10.5705 13.751 10.0067 14.1762C10.0772 15.1686 10.0772 17.3659 10.0772 18.7126Z" fill="url(#paint0_linear)"/>
<defs>
<linearGradient id="paint0_linear" x1="32.5344" y1="49.5069" x2="-11.4987" y2="-8.94071" gradientUnits="userSpaceOnUse">
<stop stop-color="#54A1D9"/>
<stop offset="1" stop-color="#45B585"/>
</linearGradient>
</defs>
</svg>
