<svg width="30" height="40" viewBox="0 0 30 40" fill="none" xmlns="http://www.w3.org/2000/svg">
<path d="M18 6.00642C18 8.02922 17 9.74859 15.5 10.8611C15.2 11.0634 14.8 11.0634 14.5 10.8611C13 9.74859 12 7.92808 12 6.00642C12 3.98362 13 2.26425 14.5 1.15171C14.8 0.94943 15.2 0.94943 15.5 1.15171C17.1 2.16311 18 3.98362 18 6.00642Z" stroke="white" stroke-width="1.5" stroke-miterlimit="10" stroke-linecap="round" stroke-linejoin="round"/>
<path d="M15 19V11" stroke="white" stroke-width="1.5" stroke-miterlimit="10" stroke-linecap="round" stroke-linejoin="round"/>
<path d="M20.8269 15.8086C18.863 16.3013 16.7959 15.8086 15.3488 14.7245C15.0388 14.5275 14.9354 14.1333 15.0388 13.7391C15.7623 12.0638 17.2093 10.6842 19.1731 10.1914C21.137 9.69872 23.2041 10.1914 24.6512 11.2754C24.9612 11.4725 25.0646 11.9653 24.9612 12.2609C24.2377 13.9362 22.7907 15.3158 20.8269 15.8086Z" stroke="white" stroke-width="1.5" stroke-miterlimit="10" stroke-linecap="round" stroke-linejoin="round"/>
<path d="M9.17313 15.7543C7.2093 15.2711 5.65891 13.9181 5.03876 12.2752C4.9354 11.8886 5.03876 11.502 5.34884 11.3088C6.79587 10.1491 8.86305 9.66585 10.8269 10.2457C12.7907 10.7289 14.3411 12.0819 14.9612 13.7248C15.0646 14.1114 14.9612 14.498 14.6512 14.6912C13.2041 15.8509 11.137 16.3341 9.17313 15.7543Z" stroke="white" stroke-width="1.5" stroke-miterlimit="10" stroke-linecap="round" stroke-linejoin="round"/>
<path d="M0 23V36C0 38.2 1.8 40 4 40H26C28.2 40 30 38.2 30 36V23C30 20.8 28.2 19 26 19H4C1.8 19 0 20.8 0 23Z" fill="url(#paint0_linear)"/>
<path d="M24.5 37H5.5C4.1 37 3 35.9 3 34.5V24.5C3 23.1 4.1 22 5.5 22H24.5C25.9 22 27 23.1 27 24.5V34.5C27 35.9 25.9 37 24.5 37ZM5.5 23C4.7 23 4 23.7 4 24.5V34.5C4 35.3 4.7 36 5.5 36H24.5C25.3 36 26 35.3 26 34.5V24.5C26 23.7 25.3 23 24.5 23H5.5Z" fill="white"/>
<defs>
<linearGradient id="paint0_linear" x1="139.684" y1="40.6974" x2="100.842" y2="-46.274" gradientUnits="userSpaceOnUse">
<stop stop-color="#54AAD9"/>
<stop offset="1" stop-color="#45B585"/>
</linearGradient>
</defs>
</svg>
