<svg width="41" height="33" viewBox="0 0 41 33" fill="none" xmlns="http://www.w3.org/2000/svg">
<path d="M37.0603 29H3.9397C2.27387 29 1 27.7228 1 26.0526V3.94737C1 2.27719 2.27387 1 3.9397 1H37.0603C38.7261 1 40 2.27719 40 3.94737V26.0526C40 27.6246 38.7261 29 37.0603 29Z" stroke="#3A4151" stroke-width="1.75" stroke-miterlimit="10" stroke-linecap="round" stroke-linejoin="round"/>
<path d="M28 28.7839V1" stroke="#3A4151" stroke-width="1.75" stroke-miterlimit="10" stroke-linecap="round" stroke-linejoin="round"/>
<path d="M0.999999 9L28 9" stroke="#3A4151" stroke-width="1.75" stroke-miterlimit="10" stroke-linecap="round" stroke-linejoin="round"/>
<path d="M32.5 6H35.5" stroke="#3A4151" stroke-width="1.75" stroke-miterlimit="10" stroke-linecap="round" stroke-linejoin="round"/>
<path d="M32.5 10H35.5" stroke="#3A4151" stroke-width="1.75" stroke-miterlimit="10" stroke-linecap="round" stroke-linejoin="round"/>
<path d="M34 18.5C34.9665 18.5 35.75 17.7165 35.75 16.75C35.75 15.7835 34.9665 15 34 15C33.0335 15 32.25 15.7835 32.25 16.75C32.25 17.7165 33.0335 18.5 34 18.5Z" fill="#3A4151"/>
<path d="M34 24.5C34.9665 24.5 35.75 23.7165 35.75 22.75C35.75 21.7835 34.9665 21 34 21C33.0335 21 32.25 21.7835 32.25 22.75C32.25 23.7165 33.0335 24.5 34 24.5Z" fill="#3A4151"/>
<path d="M34 29V31.5" stroke="#3A4151" stroke-width="1.75" stroke-miterlimit="10" stroke-linecap="round" stroke-linejoin="round"/>
<path d="M6 29V31.5" stroke="#3A4151" stroke-width="1.75" stroke-miterlimit="10" stroke-linecap="round" stroke-linejoin="round"/>
</svg>
