<svg width="20" height="20" viewBox="0 0 20 20" fill="none" xmlns="http://www.w3.org/2000/svg">
<path d="M12.3665 1.23071C14.0642 1.42544 15.6454 2.19108 16.8507 3.40211C18.056 4.61314 18.8138 6.1978 18.9999 7.89592" stroke="white" stroke-width="1.3" stroke-linecap="round" stroke-linejoin="round"/>
<path d="M12.3665 4.58884C13.184 4.75011 13.9348 5.1519 14.5223 5.74264C15.1099 6.33338 15.5076 7.08613 15.6642 7.90433" stroke="white" stroke-width="1.3" stroke-linecap="round" stroke-linejoin="round"/>
<path d="M7.52866 8.70094C8.38132 10.268 9.66341 11.5596 11.2245 12.4239C11.8677 12.7741 12.6215 12.8618 13.3282 12.6691L14.6766 12.3064C14.863 12.255 15.058 12.242 15.2495 12.2687C15.441 12.2955 15.625 12.3611 15.7902 12.4616C16.7307 13.0447 17.6085 13.7236 18.4095 14.4871L18.4635 14.5401C18.6947 14.7763 18.8467 15.0786 18.8984 15.405C18.9392 16.6507 17.0296 18.3196 16.661 18.5309C15.7825 19.1674 14.6435 19.1534 13.2429 18.5036C9.35762 16.8818 3.13733 10.7443 1.49223 6.68334C0.862055 5.28988 0.822244 4.12574 1.45811 3.24666C1.75377 2.75028 3.40167 0.940862 4.5739 1.00149C4.92295 1.05703 5.24367 1.22699 5.48556 1.48461C6.248 2.29663 6.92415 3.18556 7.5031 4.13705C7.60169 4.30155 7.66594 4.4843 7.692 4.67429C7.71806 4.86428 7.70541 5.05757 7.65475 5.24252L7.28701 6.61789C7.09896 7.31765 7.1854 8.06277 7.52866 8.70094V8.70094Z" stroke="white" stroke-width="1.3" stroke-linecap="round" stroke-linejoin="round"/>
</svg>
