<svg width="21" height="30" viewBox="0 0 21 30" fill="none" xmlns="http://www.w3.org/2000/svg">
<path d="M7.19935 30H0.914203C0.685652 30 0.399964 29.8839 0.228551 29.7099C0.0571377 29.5358 0 29.3037 0 29.0135V8.58801C0 8.29787 0.114275 8.00774 0.342826 7.83366L8.97062 0.522244C9.77054 -0.174081 10.9704 -0.174081 11.8275 0.522244L20.4553 7.89168C20.6838 8.06576 20.7981 8.3559 20.7981 8.64603V16.2476C20.7981 16.7698 20.3982 17.234 19.8268 17.234H14.513V22.6306C14.513 23.1528 14.113 23.617 13.5988 23.617H8.22783C8.22783 25.4159 8.22783 29.0135 8.22783 29.0135C8.17069 29.5938 7.77072 30 7.19935 30ZM1.88554 28.0851H6.28514V23.675C6.28514 22.3985 6.28514 21.7021 7.25648 21.7021H12.5703V17.234H7.19935C6.22801 17.234 6.22801 16.4797 6.22801 15.4932V11.1992C6.22801 10.9091 6.34228 10.619 6.57083 10.4449C6.62797 10.3868 9.7134 7.77563 9.7134 7.77563C10.0562 7.48549 10.5705 7.48549 10.9133 7.77563L14.0559 10.4449C14.2844 10.619 14.3987 10.9091 14.3987 11.1992V15.3191H18.8554V9.05223L10.5705 1.97292C10.4562 1.85687 10.2848 1.85687 10.1705 1.97292L1.88554 9.05223V28.0851ZM8.17069 15.3191H12.5703V11.6054L10.3419 9.74855C9.2563 10.677 8.57065 11.2573 8.11355 11.6054C8.17069 12.4178 8.17069 14.2166 8.17069 15.3191Z" fill="url(#paint0_linear)"/>
<defs>
<linearGradient id="paint0_linear" x1="32.4324" y1="25.1351" x2="-21.4865" y2="12.1622" gradientUnits="userSpaceOnUse">
<stop stop-color="#54AAD9"/>
<stop offset="1" stop-color="#45B585"/>
</linearGradient>
</defs>
</svg>
