<svg width="36" height="40" viewBox="0 0 36 40" fill="none" xmlns="http://www.w3.org/2000/svg">
<path d="M1 31.4111H35" stroke="#3A4151" stroke-width="1.75" stroke-miterlimit="10" stroke-linecap="round" stroke-linejoin="round"/>
<path d="M7 8.18334C7.96649 8.18334 8.75 7.39984 8.75 6.43334C8.75 5.46684 7.96649 4.68334 7 4.68334C6.0335 4.68334 5.25 5.46684 5.25 6.43334C5.25 7.39984 6.0335 8.18334 7 8.18334Z" fill="#3A4151"/>
<path d="M13.4224 8.18334C14.3889 8.18334 15.1724 7.39984 15.1724 6.43334C15.1724 5.46684 14.3889 4.68334 13.4224 4.68334C12.4559 4.68334 11.6724 5.46684 11.6724 6.43334C11.6724 7.39984 12.4559 8.18334 13.4224 8.18334Z" fill="#3A4151"/>
<path d="M19.75 8.18334C20.7165 8.18334 21.5 7.39984 21.5 6.43334C21.5 5.46684 20.7165 4.68334 19.75 4.68334C18.7835 4.68334 18 5.46684 18 6.43334C18 7.39984 18.7835 8.18334 19.75 8.18334Z" fill="#3A4151"/>
<path d="M32.1667 36.4167H3.83333C2.22778 36.4167 1 35.1889 1 33.5833V3.83333C1 2.22778 2.22778 1 3.83333 1H32.1667C33.7722 1 35 2.22778 35 3.83333V33.5833C35 35.1889 33.7722 36.4167 32.1667 36.4167Z" stroke="#3A4151" stroke-width="1.75" stroke-miterlimit="10" stroke-linecap="round" stroke-linejoin="round"/>
<path d="M30.2777 31.4111H5.72217V14.5056C5.72217 12.9 6.90447 11.6722 8.45056 11.6722H27.5493C29.0954 11.6722 30.2777 12.9 30.2777 14.5056V31.4111Z" stroke="#3A4151" stroke-width="1.75" stroke-miterlimit="10" stroke-linecap="round" stroke-linejoin="round"/>
<path d="M30.75 36.4167V38.9167" stroke="#3A4151" stroke-width="1.75" stroke-miterlimit="10" stroke-linecap="round" stroke-linejoin="round"/>
<path d="M5.25 36.4167V38.9167" stroke="#3A4151" stroke-width="1.75" stroke-miterlimit="10" stroke-linecap="round" stroke-linejoin="round"/>
<path d="M13.0889 16.5833H23.0055" stroke="#3A4151" stroke-width="1.75" stroke-miterlimit="10" stroke-linecap="round" stroke-linejoin="round"/>
</svg>
