<svg width="17" height="17" viewBox="0 0 17 17" fill="none" xmlns="http://www.w3.org/2000/svg">
<path d="M10.472 1.19226C11.8869 1.35454 13.2046 1.99258 14.209 3.00179C15.2134 4.01099 15.8449 5.33157 16 6.74669" stroke="url(#paint0_linear)" stroke-width="1.3" stroke-linecap="round" stroke-linejoin="round"/>
<path d="M10.472 3.99075C11.1534 4.12515 11.779 4.45998 12.2686 4.95227C12.7583 5.44456 13.0897 6.07186 13.2202 6.7537" stroke="url(#paint1_linear)" stroke-width="1.3" stroke-linecap="round" stroke-linejoin="round"/>
<path d="M6.44063 7.41755C7.15119 8.72344 8.21962 9.79981 9.52051 10.5201C10.0566 10.8119 10.6848 10.885 11.2736 10.7244L12.3974 10.4222C12.5527 10.3793 12.7152 10.3685 12.8747 10.3908C13.0343 10.413 13.1877 10.4677 13.3253 10.5515C14.1091 11.0374 14.8406 11.6032 15.5081 12.2394L15.5531 12.2836C15.7458 12.4804 15.8725 12.7323 15.9156 13.0044C15.9495 14.0424 14.3582 15.4332 14.051 15.6093C13.319 16.1398 12.3698 16.1281 11.2026 15.5865C7.96479 14.235 2.78113 9.12041 1.4102 5.73619C0.885044 4.57496 0.851868 3.60482 1.38176 2.87225C1.62815 2.45859 3.00142 0.950717 3.97829 1.00124C4.26918 1.04753 4.53645 1.18916 4.73802 1.40385C5.3734 2.08054 5.93687 2.82133 6.41933 3.61425C6.50149 3.75134 6.55504 3.90363 6.57675 4.06196C6.59847 4.22028 6.58793 4.38136 6.54571 4.53549L6.23925 5.68164C6.08254 6.26479 6.15458 6.88573 6.44063 7.41755V7.41755Z" stroke="url(#paint2_linear)" stroke-width="1.3" stroke-linecap="round" stroke-linejoin="round"/>
<defs>
<linearGradient id="paint0_linear" x1="36.211" y1="6.93115" x2="23.6747" y2="-12.6242" gradientUnits="userSpaceOnUse">
<stop stop-color="#54AAD9"/>
<stop offset="1" stop-color="#45B585"/>
</linearGradient>
<linearGradient id="paint1_linear" x1="23.2679" y1="6.84546" x2="17.0304" y2="-2.87865" gradientUnits="userSpaceOnUse">
<stop stop-color="#54AAD9"/>
<stop offset="1" stop-color="#45B585"/>
</linearGradient>
<linearGradient id="paint2_linear" x1="70.4516" y1="16.4982" x2="36.585" y2="-36.2864" gradientUnits="userSpaceOnUse">
<stop stop-color="#54AAD9"/>
<stop offset="1" stop-color="#45B585"/>
</linearGradient>
</defs>
</svg>
