<svg width="38" height="32" viewBox="0 0 38 32" fill="none" xmlns="http://www.w3.org/2000/svg">
<path d="M22 32C21.1 32 20.4 31.3 20.4 30.4V26.2C20.4 25.3 21.1 24.6 22 24.6C22.9 24.6 23.6 25.3 23.6 26.2V28.7C29.9 27.9 34.8 22.5 34.8 16C34.8 9.5 29.9 4.1 23.6 3.3V5.8C23.6 6.7 22.9 7.4 22 7.4C21.1 7.4 20.4 6.7 20.4 5.8V1.6C20.4 0.699998 21.1 0 22 0C30.8 0 38 7.2 38 16C38 24.8 30.8 32 22 32Z" fill="url(#paint0_linear)"/>
<path d="M26.3 9.70005C26 9.50005 25.6 9.50006 25.4 9.80006L21.8 14.4001C21.7 14.4001 21.7 14.4001 21.6 14.4001C19.8 14.4001 18.3 15.9001 18.3 17.7001C18.3 19.5001 19.8 21.0001 21.6 21.0001C23.4 21.0001 24.9 19.5001 24.9 17.7001C24.9 17.0001 24.7 16.4001 24.3 15.8001L26.5 10.4001C26.6 10.2001 26.5 9.90005 26.3 9.70005ZM23 18.3001C22.8 18.9001 22.2 19.3001 21.5 19.3001C20.6 19.3001 19.9 18.6001 19.9 17.7001C19.9 17.3001 20 17.0001 20.2 16.7001C20.5 16.3001 21 16.1001 21.5 16.1001C21.8 16.1001 22.1 16.2001 22.3 16.3001C22.8 16.6001 23.1 17.1001 23.1 17.7001C23.2 17.9001 23.1 18.1001 23 18.3001Z" fill="white"/>
<path d="M23.2 17.7001C23.2 17.9001 23.2 18.1001 23.1 18.3001C22.9 18.9001 22.3 19.3001 21.6 19.3001C20.7 19.3001 20 18.6001 20 17.7001C20 17.3001 20.1 17.0001 20.3 16.7001C20.6 16.3001 21.1 16.1001 21.6 16.1001C21.9 16.1001 22.2 16.2001 22.4 16.3001C22.8 16.6001 23.2 17.1001 23.2 17.7001Z" fill="#3A4151"/>
<path d="M15.6 25.9H8.7C8.1 25.9 7.7 25.5 7.7 24.9C7.7 24.3 8.1 23.9 8.7 23.9H15.6C16.2 23.9 16.6 24.3 16.6 24.9C16.6 25.5 16.1 25.9 15.6 25.9Z" fill="white"/>
<path d="M13.9 19H1C0.4 19 0 18.6 0 18C0 17.4 0.4 17 1 17H13.9C14.5 17 14.9 17.4 14.9 18C14.9 18.6 14.4 19 13.9 19Z" fill="white"/>
<path d="M15.6 12H7C6.4 12 6 11.6 6 11C6 10.4 6.4 10 7 10H15.6C16.2 10 16.6 10.4 16.6 11C16.6 11.6 16.1 12 15.6 12Z" fill="white"/>
<defs>
<linearGradient id="paint0_linear" x1="102.348" y1="33.0627" x2="23.7349" y2="-34.7059" gradientUnits="userSpaceOnUse">
<stop stop-color="#54AAD9"/>
<stop offset="1" stop-color="#45B585"/>
</linearGradient>
</defs>
</svg>
