<svg width="46" height="46" viewBox="0 0 46 46" fill="none" xmlns="http://www.w3.org/2000/svg">
<path d="M23.1072 9.09091C23.2144 9.30408 23.4287 9.41066 23.5359 9.62382C24.3933 10.6897 25.3579 11.8621 26.8583 12.395C27.287 12.5016 27.8229 12.6082 28.2516 12.6082C29.3234 12.6082 30.288 12.2884 31.1454 12.0752C31.3597 12.0752 31.5741 11.9687 31.7884 11.8621C31.7884 11.9687 31.7884 12.1818 31.7884 12.2884C31.7884 13.5674 31.8956 15.1661 32.8602 16.5517C33.8248 17.7241 35.2181 18.2571 36.6113 18.6834C36.7185 18.6834 36.9329 18.79 37.1472 18.8966C37.0401 19.0031 36.9329 19.1097 36.9329 19.2163C36.1826 20.2821 35.2181 21.5611 35.2181 23.1599C35.2181 24.7586 36.1826 26.1442 36.9329 27.21C36.9329 27.3166 37.0401 27.3166 37.1472 27.4232C37.0401 27.4232 36.8257 27.5298 36.7185 27.5298C35.4324 27.9561 33.9319 28.489 32.9674 29.768C32.0028 31.047 31.8956 32.6458 31.8956 33.9248C31.8956 34.0313 31.8956 34.2445 31.8956 34.3511C31.6813 34.3511 31.5741 34.2445 31.3597 34.2445C30.5023 34.0313 29.4306 33.7116 28.3588 33.7116C27.8229 33.7116 27.3942 33.8182 26.8583 33.9248C25.2507 34.4577 24.2861 35.6301 23.4287 36.6959C23.3215 36.8025 23.2144 37.0157 23.1072 37.1223C23 36.9091 22.7856 36.8025 22.6785 36.5893C21.8211 35.5235 20.8565 34.3511 19.356 33.8182C18.9273 33.7116 18.4986 33.605 17.9627 33.605C16.891 33.605 15.9264 33.9248 15.069 34.1379C14.8546 34.1379 14.6403 34.2445 14.4259 34.3511C14.4259 34.2445 14.4259 34.0313 14.4259 33.9248C14.4259 32.6458 14.3187 31.047 13.3542 29.768C12.3896 28.489 10.8891 28.0627 9.603 27.6364C9.49583 27.6364 9.28148 27.5298 9.06712 27.4232C9.1743 27.3166 9.28148 27.21 9.28148 27.1034C10.1389 26.0376 10.9963 24.7586 10.9963 23.1599C10.9963 21.5611 10.0317 20.1755 9.28148 19.1097C9.28148 19.0031 9.1743 19.0031 9.06712 18.8966C9.1743 18.8966 9.38865 18.79 9.49583 18.79C10.8891 18.2571 12.3896 17.7241 13.3542 16.4451C14.3187 15.1661 14.4259 13.5674 14.4259 12.2884C14.4259 12.1818 14.4259 11.9687 14.4259 11.8621C14.6403 11.8621 14.8546 11.9687 14.9618 11.9687C15.8192 12.1818 16.891 12.5016 17.9627 12.5016C18.4986 12.5016 18.9273 12.395 19.356 12.2884C20.9637 11.8621 21.9282 10.5831 22.7856 9.51724C22.8928 9.41066 23 9.30408 23.1072 9.09091ZM23.1072 6C21.3924 6 20.2134 9.30408 18.6058 9.83699C18.3914 9.94357 18.1771 9.94357 17.9627 9.94357C16.6766 9.94357 14.8546 9.09091 13.5685 9.09091C13.247 9.09091 12.8183 9.19749 12.6039 9.30408C11.1035 10.2633 12.2824 13.5674 11.2106 14.8464C10.2461 16.1254 6.60208 16.232 6.0662 17.8307C5.53032 19.4295 8.42407 21.4545 8.42407 23.0533C8.42407 24.652 5.53032 26.7837 6.0662 28.2759C6.60208 29.8746 10.2461 29.8746 11.2106 31.1536C12.1752 32.4326 11.2106 35.8433 12.4968 36.6959C12.8183 36.9091 13.1398 36.9091 13.4613 36.9091C14.7474 36.9091 16.5694 36.0564 17.8556 36.0564C18.0699 36.0564 18.2843 36.0564 18.4986 36.163C20.1062 36.6959 21.2852 40 23 40C24.7148 40 25.8938 36.6959 27.5014 36.163C27.7157 36.0564 27.9301 36.0564 28.1444 36.0564C29.4306 36.0564 31.2525 36.9091 32.5387 36.9091C32.8602 36.9091 33.1817 36.8025 33.5032 36.6959C34.8965 35.7367 33.8248 32.4326 34.7894 31.047C35.7539 29.768 39.5051 29.6614 39.9338 28.1693C40.4697 26.6771 37.5759 24.5455 37.5759 22.9467C37.5759 21.348 40.4697 19.2163 39.9338 17.7241C39.3979 16.1254 35.7539 16.1254 34.7894 14.8464C33.8248 13.5674 34.7894 10.1567 33.5032 9.30408C33.1817 9.09091 32.8602 9.09091 32.5387 9.09091C31.2525 9.09091 29.4306 9.94357 28.1444 9.94357C27.9301 9.94357 27.7157 9.94357 27.5014 9.83699C26.0009 9.30408 24.822 6 23.1072 6Z" fill="url(#paint0_linear)"/>
<path d="M20.225 24.4C20.225 24.8 20.125 25.2 20.025 25.6C19.825 26 19.625 26.3 19.425 26.5C19.225 26.7 18.825 26.9 18.425 27.1C18.025 27.3 17.625 27.3 17.125 27.3C16.325 27.3 15.625 27.1 15.025 26.8C14.725 26.6 14.425 26.4 14.225 26.2C13.925 25.9 13.925 25.4 14.225 25.1C14.525 24.8 14.925 24.8 15.225 25.1C15.425 25.3 15.625 25.4 15.825 25.5C16.225 25.7 16.625 25.8 17.125 25.8C17.525 25.8 17.925 25.7 18.225 25.4C18.525 25.1 18.725 24.8 18.725 24.4C18.725 23.9 18.525 23.6 18.125 23.4C17.725 23.2 17.225 23 16.625 23H15.825L15.525 22L18.025 19.4H14.125V18H20.125V19.2L17.525 21.8C17.925 21.8 18.225 21.9 18.525 22.1C18.825 22.3 19.125 22.4 19.325 22.6C19.625 22.8 19.725 23.1 19.925 23.4C20.125 23.6 20.225 23.9 20.225 24.4Z" fill="white"/>
<path d="M30.025 18C29.625 18 29.325 18.2 29.125 18.5L26.725 22.3L24.325 18.5C24.125 18.2 23.725 18 23.425 18C22.825 18 22.325 18.5 22.325 19.1V26.3C22.325 26.7 22.725 27.1 23.125 27.1C23.525 27.1 23.925 26.7 23.925 26.3V20.6L26.325 24.2C26.525 24.5 27.025 24.5 27.225 24.2L29.625 20.6V26.3C29.625 26.7 30.025 27.1 30.425 27.1C30.825 27.1 31.225 26.7 31.225 26.3V19.1C31.125 18.5 30.625 18 30.025 18Z" fill="white"/>
<defs>
<linearGradient id="paint0_linear" x1="164.309" y1="41.1291" x2="87.7248" y2="-78.9061" gradientUnits="userSpaceOnUse">
<stop stop-color="#54AAD9"/>
<stop offset="1" stop-color="#45B585"/>
</linearGradient>
</defs>
</svg>
