<svg width="102" height="31" viewBox="0 0 102 31" fill="none" xmlns="http://www.w3.org/2000/svg">
<path d="M0.335938 30.4228C0.335938 30.4228 4.60899 23.7852 4.60899 15.4417C4.60899 7.09829 0.335938 0.578918 0.335938 0.578918C0.335938 0.578918 27.4774 4.51418 49.2143 4.51418C70.9511 4.51418 98.0758 0.578918 98.0758 0.578918C98.0758 0.578918 93.9041 6.99695 93.9041 15.4417C93.9041 23.8865 98.0758 30.4228 98.0758 30.4228C98.0758 30.4228 70.9343 26.8253 49.2143 26.8253C27.4774 26.8253 0.335938 30.4228 0.335938 30.4228Z" fill="#00489A"/>
<path d="M49.2145 26.0315C73.4848 26.0315 93.1611 21.1842 93.1611 15.5093C93.1611 9.83438 73.4848 5.24042 49.2145 5.24042C24.9442 5.24042 5.25098 9.83438 5.25098 15.5093C5.25098 21.1673 24.9442 26.0315 49.2145 26.0315Z" fill="white"/>
<path d="M18.2726 16.7254C18.4414 17.08 18.7117 17.4009 19.5393 17.4009C20.0797 17.4009 20.6371 17.2827 20.6371 16.8942C20.6371 16.472 19.9277 16.3876 19.4717 16.3707C17.1241 16.2356 14.9791 15.8133 14.9791 14.1581C14.9791 13.4826 15.3507 12.807 16.1614 12.4016C16.9721 12.0132 18.2557 11.8781 19.2521 11.8781C21.3802 11.8781 23.407 12.503 23.407 14.0737H20.2655C19.9784 13.5501 19.7251 13.4319 18.965 13.4319C18.5597 13.4319 17.9685 13.5163 17.9685 13.871C17.9685 14.2426 18.6272 14.327 19.0833 14.3608C20.0291 14.4622 21.262 14.5973 22.1572 14.8675C23.3056 15.2053 23.6772 15.9315 23.6772 16.7085C23.6772 18.3805 21.7687 19.0223 19.5562 19.0223C17.0565 19.0223 14.9453 18.769 14.9453 16.7422H18.2726" fill="#231815"/>
<path d="M32.2065 16.4551C32.2065 17.2658 32.1389 17.9414 31.1762 18.4818C30.3149 18.9548 29.1833 19.0054 28.1361 19.0054C27.2241 19.0054 26.16 18.9041 25.4 18.5494C24.336 18.0596 24.1333 17.4009 24.1333 16.5733V11.9794H26.7005V16.32C26.7005 16.5564 26.8694 16.7422 27.0721 16.9618C27.3085 17.1814 27.7477 17.2827 28.153 17.2827C28.5077 17.2827 28.9806 17.232 29.2171 17.0293C29.4535 16.8098 29.6224 16.5902 29.6224 16.2524V11.9794H32.2234V16.4551" fill="#231815"/>
<path d="M46.9171 14.4791H43.3027V16.4383H46.9171V14.4791Z" fill="#231815"/>
<path d="M55.9195 18.8704H47.6943V17.3334L52.1363 13.7022H48.0321V12.0977H56.0378V13.7359L51.8323 17.2152H55.9195V18.8704Z" fill="#231815"/>
<path d="M64.7187 18.8704H56.8481V12.1484H64.4822V13.7529H59.466V14.6818H63.6209V16.2863H59.466V17.249H64.7187V18.8704Z" fill="#231815"/>
<path d="M33.2539 12.0471H38.4728C39.2328 12.0471 40.0604 11.9964 40.7022 12.3173C41.2089 12.5707 41.6818 13.0774 41.6818 13.6516C41.6818 14.3779 41.5298 14.5805 41.0231 15.0534C41.8676 15.5095 42.1209 15.9655 42.1209 16.7424C42.1209 17.3335 41.5636 18.2287 40.8373 18.5327C39.9759 18.9043 39.0808 18.8198 38.1688 18.8198H33.2539V12.0471V12.0471ZM35.8211 14.5636H38.4559C38.6923 14.5636 38.895 14.3779 38.895 14.1414C38.895 13.905 38.7092 13.7192 38.4559 13.7192H35.8211V14.5636ZM35.8211 17.0802H38.7092C38.9626 17.0802 39.1821 16.8606 39.1821 16.6073C39.1821 16.3539 38.9626 16.1344 38.7092 16.1344H35.8211V17.0802Z" fill="#231815"/>
<path d="M71.1537 18.8535L69.5154 16.2694H68.0291V18.8535H65.4619V12.0977H70.3937C71.2719 12.0977 72.2008 12.0977 72.944 12.4523C73.7716 12.8239 74.0756 13.6346 74.0756 14.3102C74.0756 15.2222 73.6196 15.8302 72.4373 16.2187L74.1094 18.8704H71.1537V18.8535ZM68.046 14.6311H70.7821C71.0355 14.6311 71.2213 14.4284 71.2213 14.192C71.2213 13.9555 71.0186 13.7528 70.7821 13.7528H68.046V14.6311Z" fill="#231815"/>
<path d="M83.534 15.543C83.534 17.5359 82.2166 19.1067 79.092 19.1067C75.6635 19.1067 74.2954 17.8062 74.2954 15.543C74.2954 13.5162 75.3426 11.9455 79.092 11.9455C82.3686 11.9286 83.534 13.5162 83.534 15.543ZM77.0822 15.4923C77.0822 16.1341 77.2004 17.3502 78.9232 17.3502C80.629 17.3502 80.7641 16.1341 80.7641 15.4923C80.7641 14.8505 80.5783 13.55 78.9232 13.55C77.2511 13.55 77.0822 14.8505 77.0822 15.4923Z" fill="#231815"/>
</svg>
