<svg width="50" height="50" viewBox="0 0 50 50" fill="none" xmlns="http://www.w3.org/2000/svg">
<rect width="50" height="50" rx="9" fill="#3A4151"/>
<path d="M25.6322 10.8801C32.0621 11.2394 36.5902 17.2578 35.7752 23.6354C34.779 30.9113 28.8019 36.5704 26.1756 38.7262C25.5417 39.2652 24.5455 39.2652 23.821 38.7262C21.0136 36.3907 14.1309 29.8334 14.1309 21.6592C14.1309 15.5511 19.2929 10.6106 25.6322 10.8801Z" stroke="white" stroke-width="1.75" stroke-miterlimit="10"/>
<path d="M25.0012 26.0869C28.0027 26.0869 30.436 23.6537 30.436 20.6522C30.436 17.6506 28.0027 15.2174 25.0012 15.2174C21.9996 15.2174 19.5664 17.6506 19.5664 20.6522C19.5664 23.6537 21.9996 26.0869 25.0012 26.0869Z" stroke="white" stroke-width="1.75" stroke-miterlimit="10"/>
</svg>
