<svg width="34" height="45" viewBox="0 0 34 45" fill="none" xmlns="http://www.w3.org/2000/svg">
<path d="M27.6898 4.73334H6.31061C5.20953 4.73334 4.2002 5.66088 4.2002 6.86667V38.8667C4.2002 39.9797 5.11777 41 6.31061 41H27.6898C28.7909 41 29.8002 40.0725 29.8002 38.8667V6.86667C29.8002 5.66088 28.8826 4.73334 27.6898 4.73334Z" stroke="#3A4151" stroke-width="1.75" stroke-miterlimit="10" stroke-linecap="round" stroke-linejoin="round"/>
<path d="M12.7334 1H21.2667" stroke="#3A4151" stroke-width="1.75" stroke-miterlimit="10" stroke-linecap="round" stroke-linejoin="round"/>
<path d="M1 10.0667H33" stroke="#3A4151" stroke-width="1.75" stroke-miterlimit="10" stroke-linecap="round" stroke-linejoin="round"/>
<path d="M10.6001 35.6667H23.4001" stroke="#3A4151" stroke-width="1.75" stroke-miterlimit="10" stroke-linecap="round" stroke-linejoin="round"/>
<path d="M8.4668 41V43.6667" stroke="#3A4151" stroke-width="1.75" stroke-miterlimit="10" stroke-linecap="round" stroke-linejoin="round"/>
<path d="M25.5332 41V43.6667" stroke="#3A4151" stroke-width="1.75" stroke-miterlimit="10" stroke-linecap="round" stroke-linejoin="round"/>
<path d="M12.7378 19.8856L14.3215 17.2771C15.4394 15.414 18.0478 15.414 19.1657 17.2771L20.2836 19.2335" stroke="#3A4151" stroke-width="1.75" stroke-miterlimit="10" stroke-linecap="round" stroke-linejoin="round"/>
<path d="M10.4093 23.8914L9.38452 25.6614C8.26662 27.5246 9.664 29.8536 11.8067 29.8536H14.4151" stroke="#3A4151" stroke-width="1.75" stroke-miterlimit="10" stroke-linecap="round" stroke-linejoin="round"/>
<path d="M22.6128 23.2393L24.1033 25.7546C25.2212 27.6178 23.8238 29.9467 21.6812 29.9467H18.6069" stroke="#3A4151" stroke-width="1.75" stroke-miterlimit="10" stroke-linecap="round" stroke-linejoin="round"/>
<path d="M10.7818 23.4256C10.875 23.4256 11.0613 23.4256 11.1545 23.3325L13.4834 22.0282C13.9492 21.7488 13.9492 21.0966 13.4834 20.8172L12.645 20.3514L11.1545 19.513C10.6887 19.2335 10.1297 19.6061 10.1297 20.0719V22.7735C10.0366 23.053 10.4092 23.4256 10.7818 23.4256Z" stroke="#3A4151" stroke-width="1.5" stroke-miterlimit="10" stroke-linecap="round" stroke-linejoin="round"/>
<path d="M23.0787 20.5377L21.495 19.6061C20.8429 19.2335 20.0977 19.6993 20.0977 20.4445V22.3077C20.0977 23.053 20.8429 23.5188 21.495 23.1461L23.0787 22.2146C23.7309 21.7488 23.7309 20.9103 23.0787 20.5377Z" stroke="#3A4151" stroke-width="1.5" stroke-miterlimit="10" stroke-linecap="round" stroke-linejoin="round"/>
<path d="M17.8619 29.1083L16.2782 28.1767C15.6261 27.8041 14.8809 28.2699 14.8809 29.0151V30.8783C14.8809 31.6236 15.6261 32.0894 16.2782 31.7167L17.8619 30.7852C18.5141 30.3194 18.5141 29.4809 17.8619 29.1083Z" stroke="#3A4151" stroke-width="1.5" stroke-miterlimit="10" stroke-linecap="round" stroke-linejoin="round"/>
</svg>
