<svg width="79" height="34" viewBox="0 0 79 34" fill="none" xmlns="http://www.w3.org/2000/svg">
<path d="M14.4312 22.4472L11.6658 11.8247L8.85657 22.4472H6.57406L2.64551 7.83032H4.90607L7.69337 18.4528L10.5026 7.83032H12.7632L15.5944 18.4528L18.3817 7.83032H20.6422L16.7137 22.4472H14.4312Z" fill="black"/>
<path d="M21.6958 7.87416L23.9564 7.67664V11.254L23.9125 12.5928H24.0003C25.0537 12.1978 25.8877 12.0002 26.9192 12.0002C28.7409 12.0002 29.9918 12.8342 29.9918 16.0385V22.4252H27.7313V16.2361C27.7313 14.3047 26.8095 14.0633 25.756 14.0633C25.0976 14.0633 24.5489 14.2169 23.9783 14.3705V22.4252H21.7177V7.87416H21.6958Z" fill="black"/>
<path d="M33.0863 8.02783C34.2495 8.02783 34.4471 8.7082 34.4471 9.4983C34.4471 10.2664 34.2056 10.9907 33.0863 10.9907C31.967 10.9907 31.7476 10.2884 31.7476 9.4983C31.7476 8.7082 31.9451 8.02783 33.0863 8.02783ZM31.9451 12.1759H34.2056V22.4472H31.9451V12.1759Z" fill="black"/>
<path d="M36.1152 12.1757H37.6515L37.9588 13.0097H38.1124C38.705 12.483 39.6487 12.0221 40.8778 12.0221C41.0314 12.0221 41.185 12.0221 41.3606 12.044V14.3046C40.9436 14.2388 40.5266 14.1729 40.0877 14.1729C39.4732 14.1729 38.9684 14.3266 38.3758 14.5899V22.447H36.1152V12.1757V12.1757Z" fill="black"/>
<path d="M42.3262 22.4471V7.87413L44.5867 7.69855V22.4471H42.3262Z" fill="black"/>
<path d="M60.6739 12.0221C63.8782 12.0221 65.1073 13.9534 65.1073 17.3553C65.1073 20.5596 63.966 22.6445 60.63 22.6445C57.2941 22.6445 56.1309 20.5596 56.1309 17.3553C56.1309 13.9534 57.4477 12.0221 60.6739 12.0221ZM62.8028 17.3553C62.8028 15.402 62.4956 13.8218 60.6959 13.8218C58.8743 13.8218 58.4134 15.3581 58.4134 17.3553C58.4134 19.2208 58.7865 20.8229 60.5862 20.8229C62.3858 20.8449 62.8028 19.3086 62.8028 17.3553Z" fill="black"/>
<path d="M70.7916 12.0221C73.9959 12.0221 75.2249 13.9534 75.2249 17.3553C75.2249 20.5596 74.0837 22.6445 70.7477 22.6445C67.4117 22.6445 66.2485 20.5596 66.2485 17.3553C66.2485 13.9534 67.5873 12.0221 70.7916 12.0221ZM72.9424 17.3553C72.9424 15.402 72.6352 13.8218 70.8355 13.8218C69.0139 13.8218 68.553 15.3581 68.553 17.3553C68.553 19.2208 68.9261 20.8229 70.7258 20.8229C72.5254 20.8449 72.9424 19.3086 72.9424 17.3553Z" fill="black"/>
<path d="M76.7393 22.4471V7.87413L78.9998 7.69855V22.4471H76.7393Z" fill="black"/>
<path d="M54.7483 27.1438C54.5947 27.1658 54.3533 27.2316 54.1119 27.2316C53.3218 27.2316 52.8828 26.9024 52.8828 25.9806C52.8828 25.0369 53.4754 24.6857 54.2216 24.6857C54.4411 24.6857 54.5947 24.7296 54.7264 24.7735V25.2125C54.6386 25.1905 54.3972 25.1466 54.2216 25.1466C53.7826 25.1466 53.4534 25.2125 53.4534 25.9587C53.4534 26.6829 53.8046 26.7707 54.1996 26.7707C54.3972 26.7707 54.5727 26.7268 54.7703 26.6829L54.7483 27.1438Z" fill="black"/>
<path d="M55.2969 25.9587C55.2969 25.0149 55.7358 24.6857 56.4162 24.6857C57.0965 24.6857 57.5355 25.0369 57.5355 25.9587C57.5355 26.8805 57.0965 27.2316 56.4162 27.2316C55.7358 27.2316 55.2969 26.8805 55.2969 25.9587ZM56.9649 25.9587C56.9649 25.3003 56.7454 25.1027 56.4162 25.1027C56.065 25.1027 55.8456 25.3441 55.8456 25.9587C55.8456 26.5732 56.065 26.8146 56.4162 26.8146C56.7454 26.8146 56.9649 26.6171 56.9649 25.9587Z" fill="black"/>
<path d="M58.1938 24.7296H58.8742C59.6204 24.7296 59.9277 24.9271 59.9277 25.4978C59.9277 25.9587 59.6863 26.0903 59.4229 26.1781V26.222L59.4887 26.244C59.7521 26.3318 59.8838 26.8365 60.0374 27.1438V27.2097H59.4668C59.357 26.8804 59.2254 26.3757 58.9839 26.3098H58.7206V27.2097H58.1938V24.7296ZM58.8742 25.9148C59.1376 25.9148 59.357 25.827 59.357 25.5197C59.357 25.2125 59.1815 25.1466 58.8742 25.1466H58.6986V25.8928H58.8742V25.9148Z" fill="black"/>
<path d="M60.6523 24.7296H61.3107C62.035 24.7296 62.3642 24.9052 62.3642 25.5197C62.3642 26.1562 61.9472 26.3318 61.4205 26.3318H61.1571V27.1877H60.6304V24.7296H60.6523ZM61.1791 25.9587H61.3766C61.6838 25.9587 61.8375 25.8489 61.8375 25.5417C61.8375 25.2344 61.6838 25.1466 61.3985 25.1466H61.1791V25.9587Z" fill="black"/>
<path d="M62.8247 25.9587C62.8247 25.0149 63.2637 24.6857 63.944 24.6857C64.6244 24.6857 65.0633 25.0369 65.0633 25.9587C65.0633 26.8805 64.6244 27.2316 63.944 27.2316C63.2637 27.2316 62.8247 26.8805 62.8247 25.9587ZM64.4927 25.9587C64.4927 25.3003 64.2732 25.1027 63.944 25.1027C63.5929 25.1027 63.3734 25.3441 63.3734 25.9587C63.3734 26.5732 63.5929 26.8146 63.944 26.8146C64.2732 26.8146 64.4927 26.6171 64.4927 25.9587Z" fill="black"/>
<path d="M65.7217 24.7296H66.402C67.1483 24.7296 67.4555 24.9271 67.4555 25.4978C67.4555 25.9587 67.2141 26.0903 66.9507 26.1781V26.222L67.0166 26.244C67.2799 26.3318 67.4116 26.8365 67.5652 27.1438V27.2097H66.9946C66.8849 26.8804 66.7532 26.3757 66.5118 26.3098H66.2484V27.2097H65.7217V24.7296ZM66.402 25.9148C66.6654 25.9148 66.8849 25.827 66.8849 25.5197C66.8849 25.2125 66.7093 25.1466 66.402 25.1466H66.2265V25.8928H66.402V25.9148Z" fill="black"/>
<path d="M67.9824 27.1437L68.8383 24.7076H69.3431L70.243 27.1437V27.2096H69.6723L69.4748 26.6609H68.7067L68.5311 27.2096H67.9604L67.9824 27.1437ZM69.387 26.2878L69.1456 25.4318L69.1237 25.3001H69.0798L69.0578 25.4318L68.7944 26.2878H69.387Z" fill="black"/>
<path d="M71.1428 25.1466L70.4624 25.1686V24.7296H72.3718V25.1686L71.6695 25.1466V27.1877H71.1428V25.1466Z" fill="black"/>
<path d="M73.4471 24.7296H72.9204V27.1877H73.4471V24.7296Z" fill="black"/>
<path d="M74.062 25.9587C74.062 25.0149 74.501 24.6857 75.1813 24.6857C75.8617 24.6857 76.3006 25.0369 76.3006 25.9587C76.3006 26.8805 75.8617 27.2316 75.1813 27.2316C74.501 27.2316 74.062 26.8805 74.062 25.9587ZM75.7519 25.9587C75.7519 25.3003 75.5325 25.1027 75.2033 25.1027C74.8521 25.1027 74.6326 25.3441 74.6326 25.9587C74.6326 26.5732 74.8521 26.8146 75.2033 26.8146C75.5325 26.8146 75.7519 26.6171 75.7519 25.9587Z" fill="black"/>
<path d="M76.959 24.7296H77.4199L78.3197 26.0245L78.4514 26.244H78.4733V24.7296H79.0001V27.1877H78.5611L77.6393 25.8489L77.5296 25.6734H77.4857V27.1877H76.959V24.7296Z" fill="black"/>
<path d="M61.2226 0.960828C59.3352 -1.08026 52.2901 2.80439 45.1134 8.83988V9.62998C52.1584 3.63839 58.7865 0.126832 60.3008 1.77287C61.069 2.60687 60.3886 5.24053 58.6329 8.2912C58.3695 8.40093 58.1061 8.64236 57.8428 9.03741C55.6041 12.3075 52.334 16.28 48.7785 19.7038C39.6265 28.5046 30.7379 33.8378 28.9383 31.9064C27.9067 30.8091 29.5967 27.2317 32.6473 22.9739H31.8133C28.5652 27.495 26.8094 31.3797 28.1043 32.7843C30.3648 35.2204 40.6361 29.2508 49.7662 20.4719C53.9142 16.4995 57.0526 13.1196 59.006 10.1128C59.5766 9.25688 59.5985 8.64235 59.3571 8.35704C61.5518 4.86743 62.3419 2.16792 61.2226 0.960828Z" fill="#EEB111"/>
<path d="M48.6908 14.5241C49.2394 14.3266 49.8101 14.2388 50.3807 14.2388C51.5439 14.2388 52.3121 14.5899 52.5754 15.7312C53.168 15.0728 53.7386 14.4143 54.2654 13.7559C53.6289 12.5708 52.6193 12.0221 51.4122 12.0221C50.271 12.0221 49.1297 12.5488 48.4493 12.9219H48.3396L48.164 12.1757H46.4521V21.8544C47.1764 21.196 47.9007 20.5376 48.6249 19.8353C48.6908 17.6406 48.6908 16.5652 48.6908 14.5241Z" fill="black"/>
<path d="M52.6412 17.6406C52.4876 19.967 51.6097 20.6034 50.3368 20.6034C50.0734 20.6034 49.8539 20.6034 49.6345 20.6034C48.581 21.613 47.5056 22.6006 46.4302 23.5224V27.3851L48.6907 27.1437V22.4251H48.7566C49.3931 22.5567 50.0954 22.6445 50.7318 22.6445C53.3655 22.6445 54.9457 20.8668 54.9457 17.2675C54.9457 16.5871 54.9018 15.9726 54.7921 15.4239C54.1337 16.1043 53.4094 16.8505 52.6412 17.6406Z" fill="black"/>
<path d="M18.1403 5.13069C18.2501 5.0429 18.3159 4.95511 18.3379 4.80148C18.3598 4.64785 18.272 4.56006 18.1403 4.49422C17.8989 4.40643 17.5697 4.49422 17.3502 4.56006C17.2405 4.60395 17.1088 4.64785 16.9771 4.66979C16.7138 4.73564 16.4504 4.82343 16.1432 4.86732C15.8578 4.93316 15.5506 4.97706 15.2214 5.02095C14.9141 5.06485 14.5849 5.08679 14.2557 5.10874C13.9265 5.13069 13.5973 5.15264 13.2681 5.15264C13.1803 5.15264 13.0705 5.15264 12.9828 5.15264C12.6974 5.15264 12.3902 5.15263 12.1049 5.13069C11.6879 5.10874 11.2928 5.08679 10.9197 5.06484C10.5247 5.0429 10.1735 4.999 9.82235 4.95511C9.4712 4.91121 9.14199 4.86732 8.83473 4.80148C8.52747 4.73564 8.24215 4.69174 8.00073 4.60395C7.75931 4.53811 7.56179 4.47227 7.36426 4.40643C7.27647 4.36253 7.16674 4.34059 7.07895 4.34059C6.99116 4.34059 6.85948 4.36253 6.81558 4.45032C6.77169 4.53811 6.81558 4.64785 6.88142 4.71369C6.94727 4.77953 7.03505 4.84537 7.12284 4.86732C7.16674 4.88927 7.21063 4.91122 7.25453 4.93316C7.474 5.02095 7.69347 5.08679 7.93489 5.15264C8.17631 5.21848 8.43968 5.28432 8.72499 5.35016C9.0103 5.416 9.29562 5.45989 9.60288 5.50379C9.91014 5.54768 10.2393 5.59158 10.5686 5.63547C10.8978 5.67937 11.2489 5.70131 11.6001 5.72326C11.9512 5.74521 12.3024 5.76716 12.6535 5.76716C13.0266 5.76716 13.3778 5.76716 13.7509 5.76716C14.124 5.74521 14.4752 5.74521 14.8263 5.70132C15.0897 5.67937 15.3531 5.65742 15.5945 5.63547C15.6603 5.63547 15.7262 5.61353 15.792 5.61353C15.792 5.74521 15.9676 5.833 16.0554 5.85495C16.187 5.89884 16.3187 5.89884 16.4504 5.89884C16.9991 5.85495 17.5478 5.81105 18.0745 5.74521C18.6012 5.67937 19.128 5.59158 19.6108 5.50379C20.0936 5.416 20.5545 5.30627 20.9715 5.19653C21.3885 5.08679 21.7836 4.95511 22.1128 4.82343C22.442 4.69174 22.7493 4.56006 22.9907 4.40643C23.2321 4.2528 23.4296 4.09917 23.5833 3.94554C23.7369 3.79191 23.8247 3.61633 23.8686 3.4627C23.9125 3.28712 23.8905 3.13349 23.8247 2.95791C23.7588 2.78234 23.6272 2.6287 23.4516 2.47507C23.276 2.32144 23.0346 2.14587 22.7273 2.01418C22.442 1.86055 22.0908 1.70692 21.6958 1.57524C21.3007 1.44355 20.8618 1.31187 20.379 1.18019C19.8961 1.07045 19.3694 0.960714 18.7988 0.850978C18.2281 0.763189 17.6356 0.675399 17.021 0.609557C16.3846 0.543716 15.7481 0.477877 15.0677 0.433982C14.3874 0.390088 13.707 0.368139 13.0266 0.346191C12.3243 0.346191 11.622 0.346193 10.9417 0.36814C10.2393 0.390087 9.55898 0.433982 8.87862 0.477876C8.19826 0.521771 7.53984 0.609558 6.90337 0.6754C6.2669 0.763189 5.65238 0.85098 5.08175 0.982663C4.51112 1.0924 3.96244 1.22408 3.45766 1.35577C2.95287 1.48745 2.51393 1.64108 2.09693 1.81665C1.70188 1.97029 1.35073 2.14586 1.04346 2.32144C0.75815 2.49702 0.51673 2.69454 0.341152 2.87012C0.165574 3.06765 0.0558379 3.26517 0.0338907 3.4627C-0.0100038 3.66022 0.0119438 3.85775 0.12168 4.05527C0.209469 4.2528 0.385047 4.45032 0.60452 4.64785C0.823992 4.84537 1.13125 5.02095 1.48241 5.21847C1.83356 5.39405 2.25056 5.56963 2.7334 5.74521C3.21624 5.89884 3.74297 6.05247 4.3136 6.2061C4.88423 6.33778 5.5207 6.46947 6.20106 6.57921C6.88142 6.68894 7.58373 6.79867 8.32994 6.86452C9.07615 6.95231 9.8443 7.01815 10.6344 7.06204C10.7441 7.06204 10.8539 7.08399 10.9856 7.08399C11.0953 7.08399 11.1831 7.08399 11.2928 7.04009C11.3806 6.9962 11.4684 6.93036 11.4903 6.82062C11.4903 6.71089 11.4026 6.6231 11.3367 6.57921C11.2489 6.53531 11.1392 6.51336 11.0294 6.51336C10.6344 6.49142 10.2174 6.44752 9.82235 6.42557C9.31757 6.38168 8.83473 6.31584 8.35189 6.25C7.86905 6.18416 7.4301 6.11831 6.99116 6.03052C6.57416 5.94274 6.15717 5.85494 5.78406 5.76716C5.4768 5.67937 5.16954 5.61353 4.90617 5.50379C4.15997 5.26237 3.56739 4.999 3.1504 4.69174C2.97482 4.56006 2.82119 4.42838 2.71145 4.29669C2.60172 4.16501 2.51393 4.03332 2.49198 3.90164C2.44809 3.76996 2.44809 3.63828 2.47003 3.50659C2.49198 3.37491 2.55782 3.24323 2.66756 3.11154C2.77729 2.97986 2.90898 2.84818 3.06261 2.73844C3.21624 2.60676 3.41376 2.49702 3.65518 2.38728C3.87465 2.27755 4.13802 2.16781 4.42333 2.05808C4.57697 1.99223 4.75254 1.94834 4.90617 1.8825C5.21344 1.79471 5.54264 1.68497 5.91575 1.61913C6.11327 1.57524 6.3108 1.53134 6.50832 1.48745C6.88142 1.4216 7.27647 1.33382 7.69347 1.28992C8.11047 1.22408 8.52747 1.18019 8.96641 1.13629C9.40535 1.0924 9.8443 1.0485 10.2832 1.02656C10.7222 1.00461 11.1831 0.982663 11.644 0.982663C12.1049 0.982663 12.5438 0.960716 13.0047 0.982663C13.4436 0.982663 13.9045 1.00461 14.3435 1.02656C14.7824 1.0485 15.1994 1.0924 15.6164 1.11434C16.0334 1.15824 16.4285 1.20213 16.8235 1.24603C17.2186 1.28992 17.5697 1.35577 17.9209 1.42161C18.6232 1.55329 19.2377 1.70692 19.7644 1.90445C20.2692 2.08002 20.6862 2.27755 20.9935 2.47507C21.3007 2.6726 21.4763 2.89207 21.5641 3.11154C21.63 3.33102 21.5861 3.55049 21.4324 3.74801C21.2788 3.94554 21.0154 4.14306 20.6643 4.34059C20.3131 4.51616 19.8742 4.69174 19.3255 4.84537C18.9085 4.97706 18.5354 5.06485 18.1403 5.13069Z" fill="black"/>
<path d="M6.77149 3.28699C6.66176 3.33089 6.55202 3.35283 6.42034 3.37478C6.3106 3.37478 6.15697 3.35283 6.11308 3.26505C6.04723 3.15531 6.15697 3.02363 6.22281 2.95779C6.3106 2.87 6.39839 2.8261 6.50812 2.76026C8.00054 2.05795 10.0197 1.81653 11.6218 1.81653H11.7974C12.39 1.81653 12.9606 1.83848 13.5312 1.90432C14.058 1.94821 14.5847 2.01405 15.0456 2.10184C15.5065 2.18963 15.9015 2.27742 16.2527 2.40911C16.5819 2.51884 16.8672 2.65052 17.0647 2.78221C17.2623 2.91389 17.3939 3.04557 17.4598 3.17726C17.4817 3.22115 17.5037 3.28699 17.5037 3.33089C17.5037 3.39673 17.4817 3.48452 17.4378 3.55036C17.35 3.68204 17.2184 3.79178 16.9989 3.90151C16.8014 4.01125 16.538 4.09904 16.2307 4.18683C15.9454 4.27462 15.5943 4.34046 15.2212 4.4063C14.87 4.47214 14.475 4.49409 14.0799 4.53798C13.8824 4.55993 13.6849 4.55993 13.4873 4.55993C13.3337 4.55993 13.1801 4.55993 13.0264 4.55993C12.9826 4.55993 12.9606 4.55993 12.9167 4.55993C12.7411 4.55993 12.5656 4.55993 12.39 4.53798C12.2144 4.53798 12.0608 4.51604 11.8852 4.49409C11.5779 4.47214 11.2707 4.42825 11.0073 4.38436C10.7439 4.34046 10.5245 4.27462 10.3269 4.20878C10.1514 4.14294 9.99773 4.07709 9.888 4.01125C9.77826 3.94541 9.71242 3.87957 9.69047 3.79178C9.66852 3.72594 9.66852 3.6601 9.71242 3.59425C9.75631 3.52841 9.82216 3.48452 9.93189 3.41868C10.0197 3.37478 10.1514 3.33089 10.283 3.28699C10.4147 3.2431 10.5464 3.22115 10.722 3.1992C10.8537 3.17726 11.0073 3.15531 11.1829 3.15531C11.2926 3.15531 11.4024 3.15531 11.5121 3.15531C11.6218 3.15531 11.7316 3.15531 11.8413 3.15531C11.9949 3.15531 12.1486 3.17726 12.3022 3.1992C12.4558 3.22115 12.6095 3.26505 12.7411 3.28699C12.8728 3.33089 13.0045 3.37478 13.0923 3.41868C13.202 3.46257 13.2679 3.52841 13.3118 3.59425C13.3557 3.6601 13.3557 3.72594 13.3337 3.79178C13.3118 3.83567 13.2898 3.87957 13.2459 3.92346C13.2898 3.92346 13.3337 3.92346 13.3996 3.92346C13.4215 3.92346 13.4215 3.92346 13.4434 3.92346C13.5532 3.92346 13.641 3.90152 13.7507 3.87957C13.8385 3.85762 13.9482 3.83567 14.036 3.81373C14.1238 3.79178 14.2116 3.76983 14.2994 3.72594C14.3872 3.70399 14.453 3.6601 14.5189 3.6162C14.5847 3.57231 14.6286 3.55036 14.6725 3.50647C14.7164 3.46257 14.7383 3.41868 14.7603 3.37478C14.7822 3.33089 14.7822 3.28699 14.7603 3.2431C14.7383 3.1992 14.7164 3.15531 14.6725 3.11142C14.6286 3.06752 14.5628 3.02363 14.4969 2.97973C14.4311 2.93584 14.3433 2.89194 14.2335 2.84805C14.1238 2.80416 14.0141 2.76026 13.8824 2.73831C13.7507 2.69442 13.619 2.67247 13.4434 2.62858C13.2898 2.60663 13.1142 2.56273 12.9387 2.54079C12.7631 2.51884 12.5656 2.49689 12.39 2.49689C12.1925 2.47495 11.9949 2.47494 11.7974 2.47494C11.7755 2.47494 11.7535 2.47494 11.7316 2.47494C10.0855 2.453 8.22001 2.67247 6.77149 3.28699Z" fill="black"/>
</svg>
