<svg width="24" height="35" viewBox="0 0 24 35" fill="none" xmlns="http://www.w3.org/2000/svg">
<path d="M8.30769 34.6185H1.05495C0.791209 34.6185 0.461538 34.4846 0.263736 34.2837C0.0659341 34.0828 0 33.815 0 33.4802V9.91014C0 9.57534 0.131868 9.24053 0.395604 9.03965L10.3516 0.602644C11.2747 -0.200881 12.6593 -0.200881 13.6484 0.602644L23.6044 9.10661C23.8681 9.3075 24 9.6423 24 9.9771V18.7489C24 19.3516 23.5385 19.8872 22.8791 19.8872H16.7473V26.1146C16.7473 26.7172 16.2857 27.2529 15.6923 27.2529H9.49451C9.49451 29.3287 9.49451 33.4802 9.49451 33.4802C9.42857 34.1498 8.96703 34.6185 8.30769 34.6185ZM2.17582 32.4088H7.25275V27.3198C7.25275 25.8467 7.25275 25.0432 8.37363 25.0432H14.5055V19.8872H8.30769C7.18681 19.8872 7.18681 19.0168 7.18681 17.8784V12.9234C7.18681 12.5886 7.31868 12.2538 7.58242 12.0529C7.64835 11.9859 11.2088 8.97269 11.2088 8.97269C11.6044 8.63789 12.1978 8.63789 12.5934 8.97269L16.2198 12.0529C16.4835 12.2538 16.6154 12.5886 16.6154 12.9234V17.6775H21.7582V10.4458L12.1978 2.27665C12.0659 2.14273 11.8681 2.14273 11.7363 2.27665L2.17582 10.4458V32.4088ZM9.42857 17.6775H14.5055V13.3921L11.9341 11.2493C10.6813 12.3207 9.89011 12.9903 9.36264 13.3921C9.42857 14.3295 9.42857 16.4053 9.42857 17.6775Z" fill="white"/>
</svg>
