<svg width="36" height="36" viewBox="0 0 36 36" fill="none" xmlns="http://www.w3.org/2000/svg">
<rect width="36" height="36" rx="18" fill="#6B717D"/>
<path d="M10.8421 9.32313C12.4679 7.70647 14.3741 6.56909 17.2895 7.15712V17.5706C17.1645 18.0705 16.7897 18.1816 16.4648 17.9039L10.8421 9.32313Z" fill="#C4C6CA"/>
<path d="M23.0926 12.5266C24.4912 13.4235 26.0565 15.2163 26.5 17.8565L19.777 18.974C19.3892 18.8227 19.0975 18.5727 19.1348 17.9849L23.0926 12.5266Z" fill="#C4C6CA"/>
<path d="M19.7369 21.7371C19.2888 21.8317 19.0516 22.0848 19.156 22.5946L22.6709 28.1844C24.2339 27.5107 25.7938 25.9381 26.5 23.6081L19.7369 21.7371Z" fill="#C4C6CA"/>
<path d="M16.0335 22.6839C16.5026 22.6293 16.9407 22.6211 17.0802 23.0602L17.2895 29.08C14.9853 29.2333 13.0639 28.6987 11.7632 27.0483L16.0335 22.6839Z" fill="#C4C6CA"/>
<path d="M15.1442 19.6745C15.4422 20.1112 15.6094 20.5707 15.2187 21.1274L9.48413 23.5792C8.80802 21.3033 8.86997 19.1657 9.48413 17.1318L15.1442 19.6745Z" fill="#C4C6CA"/>
</svg>
